<svg width="60" height="60" viewBox="0 0 60 60" fill="none" xmlns="http://www.w3.org/2000/svg">
<mask id="mask0" mask-type="alpha" maskUnits="userSpaceOnUse" x="0" y="0" width="60" height="60">
<path d="M59.1209 29.1211H44.9696V27.1213H48.7877C49.2729 27.1213 49.6665 26.728 49.6665 26.2425C49.6665 25.7571 49.2729 25.3636 48.7877 25.3636H44.9696V23.3638H47.6204C48.6079 23.3638 49.5365 22.9793 50.2345 22.281L56.0149 16.5007C56.3915 16.6883 56.8092 16.7881 57.2421 16.7881C57.9788 16.7881 58.6713 16.5012 59.1922 15.9805C59.7132 15.4596 60 14.7671 60 14.0305C60 13.2938 59.7132 12.6014 59.1922 12.0805C58.6715 11.5596 57.9788 11.2727 57.2421 11.2727C56.5057 11.2727 55.8132 11.5596 55.2922 12.0804C54.7713 12.6012 54.4845 13.2937 54.4845 14.0304C54.4845 14.4635 54.5844 14.881 54.7721 15.2577L48.9915 21.038C48.6254 21.4042 48.1382 21.606 47.6202 21.606H44.9696V19.6668C44.9696 17.1103 42.8894 15.0304 40.3332 15.0304H38.3939V7.2498C39.4848 6.88195 40.2727 5.84987 40.2727 4.63652C40.2727 3.1159 39.0354 1.87887 37.5151 1.87887C35.9944 1.87887 34.7574 3.11601 34.7574 4.63652C34.7574 5.84987 35.5454 6.88181 36.6359 7.2498V15.0303H34.6364V11.2122C34.6364 10.7268 34.2428 10.3333 33.7575 10.3333C33.272 10.3333 32.8787 10.7268 32.8787 11.2122V15.0303H30.8789V0.879032C30.8789 0.393643 30.4853 0.0001297 30 0.0001297C29.5144 0.0001297 29.1209 0.393643 29.1209 0.879032V15.0303H27.1213V11.2122C27.1213 10.7268 26.7278 10.3333 26.2424 10.3333C25.757 10.3333 25.3635 10.7268 25.3635 11.2122V15.0303H23.3638V12.3796C23.3638 11.3921 22.9792 10.4636 22.2809 9.76544L16.4985 3.98308C17.0093 2.95171 16.8381 1.66571 15.9805 0.807899C14.9051 -0.26729 13.1556 -0.267174 12.0805 0.807899C11.0053 1.88309 11.0053 3.63256 12.0805 4.70789C12.6181 5.24543 13.3243 5.51424 14.0305 5.51424C14.4509 5.51424 14.8707 5.41663 15.2556 5.22597L21.038 11.0084C21.4043 11.3747 21.606 11.8617 21.606 12.3796V15.0303H19.6668C19.2748 15.0303 18.8849 15.0795 18.508 15.1764C18.038 15.2974 17.755 15.7766 17.876 16.2467C17.9969 16.7169 18.4762 16.9999 18.9462 16.8788C19.18 16.8187 19.4223 16.7881 19.6667 16.7881H40.3332C41.9204 16.7881 43.2116 18.0795 43.2116 19.6667V40.3332C43.2116 40.5774 43.1812 40.8196 43.1212 41.0532C43.0004 41.5232 43.2835 42.0024 43.7535 42.1232C43.827 42.1419 43.9004 42.1509 43.9731 42.1509C44.3646 42.1509 44.7217 41.8874 44.8237 41.4907C44.9204 41.1143 44.9696 40.7247 44.9696 40.3332V38.3939H52.75C53.118 39.4848 54.1499 40.2727 55.3633 40.2727C56.884 40.2727 58.121 39.0357 58.121 37.5151C58.121 35.9944 56.8837 34.7574 55.3633 34.7574C54.1499 34.7574 53.118 35.5454 52.75 36.6359H44.9696V34.6364H48.7877C49.2729 34.6364 49.6665 34.2428 49.6665 33.7573C49.6665 33.272 49.2729 32.8784 48.7877 32.8784H44.9696V30.8789H59.1209C59.6062 30.8789 59.9997 30.4853 59.9997 30C59.9997 29.5147 59.6062 29.1211 59.1209 29.1211ZM56.5351 13.3235C56.7241 13.1346 56.9752 13.0306 57.2421 13.0306C57.5091 13.0306 57.7602 13.1346 57.9492 13.3235C58.1381 13.5124 58.242 13.7634 58.242 14.0305C58.242 14.2975 58.1381 14.5485 57.9492 14.7375C57.7602 14.9264 57.5091 15.0303 57.2421 15.0303C56.9752 15.0303 56.7241 14.9264 56.5351 14.7375C56.3463 14.5485 56.2422 14.2975 56.2422 14.0305C56.2422 13.7634 56.3463 13.5123 56.5351 13.3235ZM14.7373 3.46499C14.3476 3.85464 13.7132 3.85478 13.3232 3.46488C12.9334 3.07499 12.9334 2.44067 13.3232 2.0509C13.5182 1.8559 13.7742 1.75852 14.0303 1.75852C14.2864 1.75852 14.5424 1.85602 14.7373 2.0509C15.1272 2.44078 15.1272 3.07512 14.7373 3.46499ZM37.5151 5.63635C36.9637 5.63635 36.5152 5.18775 36.5152 4.63652C36.5152 4.08526 36.9637 3.63669 37.5151 3.63669C38.0664 3.63669 38.5147 4.08526 38.5147 4.63652C38.5147 5.18775 38.0662 5.63635 37.5151 5.63635ZM55.3633 36.5152C55.9147 36.5152 56.3633 36.964 56.3633 37.5151C56.3633 38.0664 55.9147 38.515 55.3633 38.515C54.8122 38.515 54.3634 38.0664 54.3634 37.5151C54.3634 36.9637 54.812 36.5152 55.3633 36.5152Z" fill="black"/>
<path d="M47.9194 55.2922C47.0617 54.4345 45.7755 54.2633 44.7441 54.7739L38.9619 48.9915C38.5956 48.6254 38.3939 48.1382 38.3939 47.6204V44.9696H40.333C40.7252 44.9696 41.1148 44.9204 41.4917 44.8237C41.9617 44.7026 42.2448 44.2234 42.1237 43.7532C42.0026 43.2833 41.5237 43.0002 41.0535 43.1212C40.8198 43.1812 40.5774 43.2119 40.333 43.2119H19.6667C18.0794 43.2119 16.7881 41.9204 16.7881 40.3332V19.6668C16.7881 19.4224 16.8186 19.1801 16.8787 18.9466C16.9997 18.4765 16.7167 17.9974 16.2467 17.8763C15.7765 17.7552 15.2974 18.0382 15.1764 18.5083C15.0794 18.8849 15.0303 19.2747 15.0303 19.6668V21.606H7.24967C6.88182 20.5152 5.84974 19.7273 4.63639 19.7273C3.11577 19.7273 1.87874 20.9643 1.87874 22.4849C1.87874 24.0055 3.11588 25.2426 4.63639 25.2426C5.84974 25.2426 6.88168 24.4546 7.24967 23.3638H15.0302V25.3636H11.2121C10.7267 25.3636 10.3332 25.7571 10.3332 26.2425C10.3332 26.728 10.7267 27.1213 11.2121 27.1213H15.0302V29.1211H0.878902C0.393513 29.1211 0 29.5147 0 30C0 30.4853 0.393513 30.8789 0.878902 30.8789H15.0302V32.8787H11.2121C10.7267 32.8787 10.3332 33.272 10.3332 33.7575C10.3332 34.2428 10.7267 34.6364 11.2121 34.6364H15.0302V36.6362H12.3794C11.3919 36.6362 10.4634 37.0208 9.7652 37.7191L3.98482 43.4995C3.60819 43.3118 3.19065 43.2119 2.75752 43.2119C2.02089 43.2119 1.32843 43.4987 0.807537 44.0197C0.286874 44.5404 0 45.2331 0 45.9695C0 46.7062 0.286874 47.3987 0.807769 47.9197C1.32855 48.4404 2.02113 48.7271 2.75775 48.7271C3.49441 48.7271 4.18686 48.4404 4.70775 47.9197C5.22864 47.3987 5.51553 46.7062 5.51553 45.9695C5.51553 45.5363 5.41567 45.1189 5.22806 44.7423L11.0084 38.9619C11.3747 38.5956 11.8617 38.3939 12.3797 38.3939H15.0305V40.333C15.0305 42.8897 17.1105 44.9693 19.6669 44.9693H21.6061V52.75C20.5153 53.1177 19.7274 54.1499 19.7274 55.3633C19.7274 56.884 20.9645 58.121 22.485 58.121C24.0055 58.121 25.2427 56.8837 25.2427 55.3633C25.2427 54.1499 24.4547 53.118 23.3639 52.75V44.9693H25.3636V48.7877C25.3636 49.273 25.7571 49.6665 26.2425 49.6665C26.728 49.6665 27.1213 49.273 27.1213 48.7877V44.9693H29.1209V59.1209C29.1209 59.6064 29.5144 60 30 60C30.4853 60 30.8789 59.6064 30.8789 59.1209V44.9696H32.8784V48.7877C32.8784 49.2732 33.272 49.6668 33.7573 49.6668C34.2428 49.6668 34.6364 49.2732 34.6364 48.7877V44.9696H36.6359V47.6204C36.6359 48.6079 37.0205 49.5365 37.7189 50.2345L43.5013 56.017C42.9904 57.0484 43.1617 58.3343 44.0194 59.192C44.557 59.7299 45.2633 59.9984 45.9695 59.9984C46.6755 59.9984 47.3818 59.7299 47.9194 59.192C48.9946 58.117 48.9946 56.3675 47.9194 55.2922ZM4.63639 23.4847C4.08502 23.4847 3.63656 23.0362 3.63656 22.4849C3.63656 21.9335 4.08513 21.4851 4.63639 21.4851C5.18765 21.4851 5.63622 21.9336 5.63622 22.4849C5.63635 23.0363 5.18775 23.4847 4.63639 23.4847ZM3.46464 46.6766C3.27574 46.8656 3.02471 46.9694 2.75765 46.9694C2.49058 46.9694 2.23956 46.8656 2.05066 46.6766C1.86175 46.4876 1.7578 46.2367 1.7578 45.9695C1.7578 45.7026 1.86175 45.4515 2.05066 45.2625C2.23956 45.0737 2.49058 44.9696 2.75765 44.9696C3.02471 44.9696 3.27574 45.0737 3.46464 45.2625C3.65355 45.4515 3.75748 45.7026 3.75748 45.9695C3.75748 46.2367 3.65355 46.4878 3.46464 46.6766ZM23.4846 55.3636C23.4846 55.9147 23.0362 56.3633 22.4848 56.3633C21.9334 56.3633 21.4849 55.9147 21.4849 55.3636C21.4849 54.8122 21.9335 54.3637 22.4848 54.3637C23.036 54.3637 23.4846 54.8122 23.4846 55.3636ZM46.6766 57.9492C46.2867 58.339 45.6523 58.339 45.2625 57.9492C44.8726 57.5593 44.8726 56.9249 45.2625 56.5353C45.4575 56.3403 45.7134 56.243 45.9695 56.243C46.2256 56.243 46.4818 56.3403 46.6766 56.5353C47.0664 56.9249 47.0664 57.5593 46.6766 57.9492Z" fill="black"/>
<path d="M39.3333 27.6518C39.3333 25.772 37.9583 24.1798 36.0764 23.6624C36.1319 23.4326 36.1628 23.1962 36.1628 22.9547C36.1628 21.1751 34.5833 19.7273 32.6418 19.7273C31.5904 19.7273 30.6457 20.1525 30 20.8247C29.3543 20.1525 28.4096 19.7273 27.3579 19.7273C25.4166 19.7273 23.8371 21.1751 23.8371 22.9547C23.8371 23.1962 23.8681 23.4326 23.9237 23.6624C22.0416 24.1797 20.6667 25.7719 20.6667 27.6518C20.6667 28.5703 20.9918 29.437 21.5924 30.1528C21.0052 30.913 20.6667 31.8359 20.6667 32.8184C20.6665 34.3126 21.465 35.7079 22.7802 36.5736C22.7802 36.5744 22.7802 36.5749 22.7802 36.5757C22.7802 38.6144 24.5967 40.2729 26.8295 40.2729C28.1128 40.2729 29.2575 39.7245 30 38.8715C30.7425 39.7245 31.8872 40.2729 33.1705 40.2729C35.3191 40.2729 37.0816 38.7365 37.2111 36.8038C38.5163 36.0465 39.3333 34.7202 39.3333 33.2878C39.3333 32.2343 38.884 31.2293 38.1111 30.4697C38.884 29.7103 39.3333 28.7051 39.3333 27.6518ZM36.2226 31.247C37.0694 31.694 37.5751 32.4568 37.5751 33.2878C37.5751 33.9074 37.2872 34.4984 36.8009 34.9403C36.3389 34.0848 35.5221 33.4036 34.4902 33.0796C34.0274 32.9342 33.5339 33.1916 33.3883 33.6547C33.2429 34.1178 33.5004 34.611 33.9634 34.7564C34.8595 35.0381 35.4616 35.7692 35.4616 36.5759C35.4616 37.6451 34.4337 38.5152 33.17 38.5152C31.9065 38.5152 30.8783 37.6451 30.8783 36.5759V30.9394C30.8783 29.8702 31.9065 29.0004 33.17 29.0004C33.6552 29.0004 34.0488 28.6068 34.0488 28.1212C34.0488 27.6359 33.6552 27.2424 33.17 27.2424C32.3199 27.2424 31.5304 27.4834 30.8783 27.8937V26.7711C30.8783 26.2856 30.485 25.8921 29.9995 25.8921C29.5142 25.8921 29.1206 26.2856 29.1206 26.7711V31.6504C28.8248 31.4646 28.5005 31.311 28.1495 31.2008C27.6862 31.0552 27.1932 31.3129 27.0476 31.7757C26.9022 32.2388 27.1596 32.7322 27.6227 32.8776C28.5188 33.1594 29.1206 33.8905 29.1206 34.6969V36.5757C29.1206 37.6451 28.0927 38.515 26.8292 38.515C25.5655 38.515 24.5376 37.6451 24.5376 36.5757C24.5376 36.1174 24.7318 35.6717 25.0846 35.3212C25.4289 34.9789 25.4305 34.4226 25.0883 34.0781C24.7461 33.734 24.1898 33.7322 23.8455 34.0744C23.6349 34.2838 23.4536 34.5127 23.3029 34.7559C22.7479 34.2307 22.4238 33.54 22.4238 32.8181C22.4238 31.5159 23.4458 30.3719 24.9091 30.0362C25.3822 29.9276 25.6778 29.456 25.5693 28.9829C25.4607 28.5098 24.9891 28.2145 24.5161 28.3229C23.927 28.458 23.3847 28.6837 22.9037 28.9797C22.5919 28.588 22.424 28.1294 22.424 27.6515C22.4243 26.3295 23.6775 25.2532 25.2224 25.243C25.2302 25.2432 25.2381 25.2443 25.2458 25.2443C25.4464 25.2443 25.6481 25.176 25.8133 25.0362C26.1502 24.751 26.2178 24.267 25.9916 23.9029C25.9849 23.8921 25.9788 23.8811 25.9718 23.8706C25.9682 23.8654 25.9638 23.8603 25.9601 23.855C25.9465 23.8359 25.9326 23.8172 25.9174 23.7991C25.917 23.7986 25.9166 23.798 25.9161 23.7975C25.7695 23.6242 25.5946 23.3373 25.5946 22.9546C25.5946 22.1442 26.3856 21.4849 27.3576 21.4849C28.3298 21.4849 29.1206 22.1442 29.1206 22.9546C29.1206 23.44 29.5142 23.8335 29.9997 23.8335C30.485 23.8335 30.8786 23.44 30.8786 22.9546C30.8786 22.1442 31.6697 21.4849 32.6416 21.4849C33.6137 21.4849 34.4046 22.1442 34.4046 22.9546C34.4046 23.1712 34.348 23.3558 34.273 23.5077C33.7729 23.5549 33.2894 23.6758 32.8303 23.8693C32.3831 24.0579 32.1735 24.5734 32.3619 25.0207C32.5507 25.4679 33.0661 25.6778 33.5133 25.4891C33.8934 25.3289 34.302 25.2465 34.7284 25.2432C34.7368 25.2435 34.745 25.2443 34.7535 25.2443C34.7614 25.2443 34.7691 25.2432 34.777 25.243C36.3219 25.2531 37.5751 26.3295 37.5751 27.6515C37.5751 28.4823 37.0694 29.2454 36.2226 29.6923C35.9345 29.8446 35.7539 30.1438 35.7539 30.4697C35.7539 30.7956 35.9345 31.0948 36.2226 31.247Z" fill="black"/>
</mask>
<g mask="url(#mask0)">
<path d="M63 -3H-2.90164V60.75H63V-3Z" fill="#85FFC7"/>
</g>
</svg>
