<svg width="60" height="60" viewBox="0 0 60 60" fill="none" xmlns="http://www.w3.org/2000/svg">
<g clip-path="url(#clip0)">
<mask id="mask0" mask-type="alpha" maskUnits="userSpaceOnUse" x="0" y="0" width="61" height="61">
<path d="M34.1067 28.4543C34.2836 28.8004 34.6358 29.0003 34.9995 29.0003C35.1515 29.0003 35.3076 28.9653 35.4528 28.8913C35.5116 28.8613 41.3978 25.8713 44.3005 24.9543C44.8268 24.7873 45.1188 24.2253 44.9515 23.6994C44.7855 23.1733 44.2278 22.8804 43.6968 23.0464C40.6386 24.0134 34.7928 26.9834 34.5447 27.1094C34.0526 27.3594 33.8567 27.9614 34.1067 28.4543Z" fill="black"/>
<path d="M34.9995 17.0005C35.1515 17.0005 35.3076 16.9654 35.4528 16.8915C35.5115 16.8615 41.3978 13.8715 44.3005 12.9545C44.8268 12.7875 45.1187 12.2255 44.9515 11.6995C44.7855 11.1735 44.2278 10.8805 43.6968 11.0465C40.6386 12.0136 34.7928 14.9836 34.5447 15.1095C34.0529 15.3595 33.8567 15.9615 34.1067 16.4545C34.2836 16.8004 34.6355 17.0005 34.9995 17.0005Z" fill="black"/>
<path d="M59.0009 15.0004C58.4478 15.0004 58.0008 15.4484 58.0008 16.0004V55.0004C58.0008 56.6543 56.6549 58.0004 55.0011 58.0004H31.001V55.6992C32.459 55.1894 36.257 54.0003 40.001 54.0003C48.7119 54.0003 54.6271 55.9293 54.6858 55.9492C54.9868 56.0493 55.3228 55.9992 55.5858 55.8112C55.847 55.6234 56.0008 55.3212 56.0008 55.0001V11.0005C56.0008 10.5315 55.676 10.1254 55.2177 10.0244C55.2177 10.0244 54.4337 9.84947 53.0938 9.60337C52.5529 9.50342 52.0299 9.86343 51.9298 10.4054C51.8297 10.9494 52.1888 11.4704 52.7319 11.5704C53.2427 11.6643 53.6708 11.7473 54.0009 11.8134V53.6714C51.7349 53.0773 46.703 52.0004 40.001 52.0004C35.6437 52.0004 31.364 53.4313 30.0398 53.9163C28.8628 53.3962 25.3049 52.0004 21.0008 52.0004C14.1128 52.0004 8.4388 53.1363 6.00083 53.7133V11.7744C7.99784 11.2834 13.8959 10.0004 21.0008 10.0004C24.6468 10.0004 27.7738 11.1354 29.0008 11.6484V51.0003C29.0008 51.3603 29.1948 51.6935 29.5078 51.8704C29.8208 52.0482 30.2068 52.0433 30.5158 51.8574C30.6148 51.7983 40.5226 45.8803 49.3169 42.9493C49.7257 42.8122 50.0008 42.4314 50.0008 42.0002V1.00043C50.0008 0.672426 49.8398 0.365396 49.5696 0.178483C49.3016 -0.00854713 48.9578 -0.0515548 48.6488 0.0635229C40.6479 3.06445 32.5519 8.10243 32.4708 8.15249C32.0029 8.44546 31.8599 9.06244 32.1528 9.5305C32.445 9.99854 33.0618 10.1415 33.5309 9.84854C33.6049 9.80153 40.6479 5.41955 48.0006 2.46258V41.2846C41.1746 43.6566 34.0476 47.5296 31.0007 49.2634V11.0005C31.0007 10.6215 30.7867 10.2754 30.4477 10.1055C30.2757 10.0206 26.1778 8.0005 21.0008 8.0005C11.9649 8.0005 5.01788 9.95551 4.72584 10.0394C4.29682 10.1614 4.0008 10.5545 4.0008 11.0005V55.0004C4.0008 55.3134 4.14881 55.6094 4.39782 55.7984C4.57385 55.9315 4.78584 56.0005 5.00087 56.0005C5.09286 56.0005 5.18485 55.9874 5.27486 55.9613C5.3439 55.9423 12.2589 54.0006 21.0008 54.0006C24.6568 54.0006 27.7808 55.1384 29.0008 55.6495V58.0004H5.00087C3.34692 58.0004 2.00089 56.6543 2.00089 55.0004V16.0005C2.00089 15.4486 1.55289 15.0005 1.00093 15.0005C0.448984 15.0005 0.000976562 15.4486 0.000976562 16.0005V55.0004C0.000976562 57.7573 2.24394 60.0003 5.001 60.0003H55.0011C57.758 60.0003 60.001 57.7576 60.001 55.0004V16.0005C60.0007 15.4484 59.5539 15.0004 59.0009 15.0004Z" fill="black"/>
<path d="M34.1067 22.4544C34.2836 22.8004 34.6358 23.0003 34.9995 23.0003C35.1515 23.0003 35.3076 22.9653 35.4528 22.8914C35.5116 22.8614 41.3978 19.8713 44.3005 18.9543C44.8268 18.7874 45.1188 18.2253 44.9515 17.6994C44.7855 17.1733 44.2278 16.8804 43.6968 17.0464C40.6386 18.0134 34.7928 20.9834 34.5447 21.1094C34.0526 21.3594 33.8567 21.9615 34.1067 22.4544Z" fill="black"/>
<path d="M34.1067 34.4545C34.2836 34.8005 34.6358 35.0004 34.9995 35.0004C35.1515 35.0004 35.3076 34.9653 35.4528 34.8913C35.5116 34.8614 41.3978 31.8714 44.3005 30.9543C44.8268 30.7873 45.1188 30.2253 44.9515 29.6993C44.7855 29.1733 44.2278 28.8803 43.6968 29.0464C40.6386 30.0134 34.7928 32.9834 34.5447 33.1093C34.0526 33.3592 33.8567 33.9614 34.1067 34.4545Z" fill="black"/>
<path d="M24.2267 18.5584C18.0518 17.1094 11.0347 18.9555 10.7398 19.0345C10.2068 19.1774 9.88983 19.7254 10.0328 20.2594C10.1528 20.7064 10.5567 21.0004 10.9978 21.0004C11.0838 21.0004 11.1708 20.9894 11.2579 20.9664C11.3249 20.9474 18.0808 19.1704 23.7709 20.5054C24.3058 20.6304 24.8469 20.2974 24.9728 19.7594C25.0987 19.2224 24.7647 18.6844 24.2267 18.5584Z" fill="black"/>
<path d="M24.2267 24.5585C18.0518 23.1105 11.0347 24.9555 10.7398 25.0345C10.2068 25.1774 9.88983 25.7255 10.0328 26.2594C10.1528 26.7064 10.5567 27.0004 10.9978 27.0004C11.0838 27.0004 11.1708 26.9894 11.2579 26.9664C11.3249 26.9475 18.0808 25.1704 23.7709 26.5054C24.3058 26.6305 24.8469 26.2974 24.9728 25.7594C25.0987 25.2225 24.7647 24.6845 24.2267 24.5585Z" fill="black"/>
<path d="M34.1067 40.4545C34.2836 40.8005 34.6358 41.0004 34.9995 41.0004C35.1515 41.0004 35.3076 40.9653 35.4528 40.8913C35.5116 40.8614 41.3978 37.8714 44.3005 36.9543C44.8268 36.7873 45.1188 36.2253 44.9515 35.6992C44.7855 35.1735 44.2278 34.8804 43.6968 35.0464C40.6386 36.0135 34.7928 38.9834 34.5447 39.1093C34.0526 39.3593 33.8567 39.9614 34.1067 40.4545Z" fill="black"/>
<path d="M24.2267 30.5585C18.0518 29.1105 11.0347 30.9545 10.7398 31.0345C10.2068 31.1775 9.88983 31.7255 10.0328 32.2593C10.1528 32.7064 10.5567 33.0014 10.9978 33.0014C11.0838 33.0014 11.1708 32.9896 11.2579 32.9666C11.3249 32.9473 18.0808 31.1703 23.7709 32.5055C24.3058 32.6305 24.8469 32.2976 24.9728 31.7594C25.0987 31.2225 24.7647 30.6845 24.2267 30.5585Z" fill="black"/>
<path d="M24.2267 42.5582C18.0518 41.1095 11.0347 42.9555 10.7398 43.0345C10.2068 43.1775 9.88983 43.7256 10.0328 44.2594C10.1528 44.7064 10.5567 45.0015 10.9978 45.0015C11.0838 45.0015 11.1708 44.9893 11.2579 44.9663C11.3249 44.9474 18.0808 43.1704 23.7709 44.5053C24.3058 44.6293 24.8469 44.2973 24.9728 43.7592C25.0987 43.2223 24.7647 42.6845 24.2267 42.5582Z" fill="black"/>
<path d="M24.2267 36.5585C18.0518 35.1095 11.0347 36.9543 10.7398 37.0345C10.2068 37.1775 9.88983 37.7256 10.0328 38.2594C10.1528 38.7064 10.5567 39.0014 10.9978 39.0014C11.0838 39.0014 11.1708 38.9896 11.2579 38.9663C11.3249 38.9473 18.0808 37.1703 23.7709 38.5053C24.3058 38.6306 24.8469 38.2973 24.9728 37.7595C25.0987 37.2226 24.7647 36.6844 24.2267 36.5585Z" fill="black"/>
</mask>
<g mask="url(#mask0)">
<path d="M60.0003 0H0V60.0003H60.0003V0Z" fill="#85FFC7"/>
</g>
</g>
<defs>
<clipPath id="clip0">
<rect width="60" height="60" fill="white"/>
</clipPath>
</defs>
</svg>
