<svg width="586" height="510" viewBox="0 0 586 510" fill="none" xmlns="http://www.w3.org/2000/svg">
<path d="M84.039 279.774C83.7097 279.693 83.6747 279.482 83.9608 279.305C84.2769 279.11 84.5118 279.168 84.5594 279.453C84.6001 279.711 84.3683 279.855 84.039 279.774H84.039ZM181.077 478.005C180.802 477.837 180.802 477.562 181.077 477.393C181.352 477.225 181.577 477.363 181.577 477.699C181.577 478.035 181.352 478.173 181.077 478.005ZM180.743 478.922C180.198 478.922 179.752 478.873 179.752 478.814C179.752 478.755 180.197 478.638 180.743 478.555C181.287 478.472 181.733 478.52 181.733 478.663C181.733 478.805 181.288 478.922 180.743 478.922ZM182.074 476.542C181.803 476.376 181.786 476.046 182.039 475.808C182.29 475.57 182.512 475.706 182.532 476.109C182.552 476.513 182.346 476.708 182.075 476.542H182.074ZM183.116 473.231C182.787 473.149 182.752 472.938 183.038 472.762C183.354 472.567 183.589 472.625 183.637 472.91C183.677 473.167 183.446 473.312 183.116 473.231V473.231ZM462.123 30.1319C461.578 30.1319 461.132 30.0215 461.132 29.8873C461.132 29.7528 461.578 29.6428 462.123 29.6428C462.668 29.6428 463.113 29.7532 463.113 29.8873C463.113 30.0219 462.668 30.1319 462.123 30.1319ZM463.084 31.3547C461.665 31.3547 461.212 30.9842 462.173 30.6094C462.673 30.414 463.124 30.3092 463.174 30.3765C463.225 30.4442 463.414 30.6913 463.597 30.9267C463.779 31.1621 463.546 31.3547 463.084 31.3547H463.084ZM469.089 33.0667C468.561 33.0667 468.386 32.9016 468.7 32.6999C469.014 32.4981 469.445 32.3331 469.66 32.3331C469.874 32.3331 470.049 32.4981 470.049 32.6999C470.049 32.9016 469.617 33.0667 469.089 33.0667ZM475.994 32.2108C475.299 32.6095 475.129 32.6235 475.072 32.286C475.037 32.0586 475.448 31.8044 475.994 31.7213C477.133 31.5475 477.133 31.556 475.994 32.2104V32.2108ZM475.828 34.1925C475.374 34.2615 475.003 34.1537 475.003 33.9517C475.003 33.7498 475.374 33.5281 475.828 33.4588C476.283 33.3898 476.654 33.4976 476.654 33.6998C476.654 33.9015 476.283 34.1233 475.828 34.1925ZM491.417 444.465C491.213 444.517 490.751 447.641 490.39 451.408C490.03 455.174 489.563 458.751 489.352 459.356C489.142 459.961 488.698 461.943 488.366 463.758C488.034 465.574 487.503 467.279 487.187 467.545C486.011 468.537 485.092 467.117 485.998 465.708C486.471 464.972 487.132 461.894 487.466 458.867C488.226 451.983 488.401 451.183 489.229 450.852C489.596 450.705 489.499 450.525 489.013 450.451C488.207 450.328 488.297 448.534 489.234 446.027C489.435 445.489 489.659 444.177 489.732 443.112C489.805 442.048 490.025 441.222 490.221 441.278C490.75 441.43 491.848 444.355 491.416 444.465H491.417ZM491.846 427.439C491.301 427.523 490.855 427.419 490.855 427.209C490.855 427 491.301 426.828 491.846 426.828C492.391 426.828 492.837 426.932 492.837 427.058C492.837 427.185 492.391 427.356 491.846 427.439V427.439ZM491.925 432.206C490.934 433.121 490.114 432.493 490.492 431.108C490.675 430.436 490.859 429.461 490.901 428.942C490.942 428.424 491.214 428.058 491.505 428.13C492.331 428.334 492.661 431.527 491.925 432.206H491.925ZM492.23 436.19C492.111 436.22 491.814 437.1 491.57 438.147C491.326 439.193 490.841 440.12 490.491 440.206C490.141 440.293 490.121 439.051 490.445 437.448C490.77 435.844 491.166 434.499 491.326 434.458C491.487 434.418 491.804 434.779 492.032 435.261C492.26 435.743 492.349 436.161 492.23 436.19H492.23ZM492.792 423.404C492.496 425.22 492.092 426.376 491.896 425.972C491.19 424.519 491.312 417.992 492.051 417.705C492.596 417.494 492.844 417.514 492.944 417.779C493.326 418.798 493.282 420.408 492.793 423.404L492.792 423.404ZM493.853 414.233C493.567 415.847 492.985 417.035 492.561 416.874C492.137 416.713 491.839 416.162 491.899 415.651C491.958 415.14 491.934 413.42 491.836 411.829C491.743 410.239 491.929 408.872 492.251 408.793C494.22 408.307 494.647 409.759 493.853 414.233H493.853ZM196.536 466.449C195.959 466.449 195.762 466.559 196.099 466.693C196.436 466.828 196.908 466.938 197.148 466.938C197.389 466.938 197.585 466.828 197.585 466.693C197.585 466.559 197.113 466.449 196.536 466.449H196.536ZM198.447 34.9101C197.641 34.7111 196.63 36.1852 197.027 36.9799C197.564 38.0543 197.832 38.1002 198.459 37.2245C199.247 36.1238 199.241 35.1061 198.449 34.9101H198.447ZM221.435 481.99C220.93 481.913 220.22 482.08 219.859 482.361C219.112 482.941 219.738 483.205 221.298 482.967C222.599 482.769 222.681 482.18 221.435 481.99H221.435ZM243.057 475.147C242.569 475.221 242.186 475.633 242.205 476.063L242.241 476.843L243.585 476.244C244.972 475.626 244.626 474.908 243.058 475.147H243.057ZM407.63 471.096C407.085 471.096 406.646 471.398 406.654 471.768C406.664 472.292 406.881 472.36 407.63 472.074C408.882 471.595 408.882 471.096 407.63 471.096ZM421.586 473.175C421.204 472.759 419.662 473.868 419.589 474.611C419.533 475.174 419.784 475.259 420.857 475.039C422.016 474.802 422.334 473.988 421.586 473.175ZM461.225 41.4904C460.731 41.5656 460.56 41.8474 460.845 42.1161C461.558 42.7891 462.123 42.7286 462.123 41.9793C462.123 41.635 461.719 41.415 461.225 41.4904H461.225ZM461.446 43.2929C461.159 43.4695 461.195 43.6804 461.524 43.7617C461.853 43.8432 462.087 43.699 462.044 43.4407C461.998 43.1558 461.762 43.0979 461.446 43.2929V43.2929ZM461.225 44.1806C460.731 44.2559 460.56 44.5376 460.845 44.8065C461.558 45.4795 462.123 45.4189 462.123 44.6696C462.123 44.3252 461.719 44.1052 461.225 44.1806H461.225ZM467.411 43.0331C467.136 43.2012 467.136 43.4763 467.411 43.6445C467.686 43.8127 467.911 43.6747 467.911 43.3388C467.911 43.0025 467.686 42.865 467.411 43.0331ZM496.799 215.64C496.255 215.723 495.809 215.95 495.809 216.144C495.809 216.337 496.254 216.496 496.799 216.496C497.344 216.496 497.79 216.269 497.79 215.992C497.79 215.715 497.345 215.557 496.799 215.64ZM500.576 269.079C502.047 226.855 501.642 218.937 497.928 217.299C497.138 216.951 496.852 217.034 496.286 217.779C495.626 218.647 496.317 231.729 497.324 237.529C497.882 240.736 497.94 259.049 497.411 265.288C496.525 275.742 496.632 277.485 498.214 278.417C500.447 279.733 502.258 279.916 501.151 278.714C500.668 278.19 500.41 273.854 500.576 269.079H500.576ZM506.362 230.44C506.098 230.506 505.589 239.914 505.23 251.347C504.607 271.18 504.429 274.372 503.202 287.666C502.91 290.828 502.479 295.78 502.242 298.672C502.006 301.564 501.546 306.242 501.22 309.067C500.562 314.768 500.564 314.738 500.661 315.425C500.774 316.226 499.83 349.878 499.683 350.277C499.609 350.479 499.633 351.414 499.738 352.356C499.842 353.297 499.687 355.609 499.393 357.492C499.1 359.375 498.618 364.273 498.323 368.375C497.809 375.53 497.488 379.118 496.178 392.343C495.328 400.931 494.795 406.605 494.808 406.949C494.817 407.115 494.154 407.184 493.318 407.105C492.167 406.996 491.935 406.698 492.323 405.828C492.84 404.67 493.05 395.344 492.594 393.832C492.309 392.888 490.46 392.58 489.084 393.246C488.581 393.489 488.054 396.055 487.913 398.947C487.771 401.839 487.519 404.921 487.352 405.795C487.186 406.669 486.793 410.466 486.48 414.233C486.167 417.999 485.689 421.906 485.417 422.915C485.146 423.924 484.662 427.336 484.343 430.497C484.024 433.658 483.575 436.574 483.344 436.978C483.114 437.381 482.731 439.197 482.495 441.013C481.9 445.571 481.041 449.95 480.455 451.408C479.796 453.046 478.634 457.829 478.671 458.745C478.687 459.148 478.328 460.304 477.871 461.313C477.414 462.322 476.783 464.358 476.468 465.837C476.153 467.317 475.715 468.803 475.495 469.139C475.274 469.475 474.841 470.559 474.53 471.548C474.134 472.811 473.236 473.668 471.512 474.43C470.163 475.027 469.059 475.838 469.059 476.233C469.059 476.787 468.701 476.916 467.489 476.801C466.626 476.72 466.292 476.586 466.746 476.503C467.201 476.421 467.577 475.473 467.583 474.397C467.592 473.321 467.92 471.038 468.318 469.323C468.779 467.343 468.692 466.204 468.081 466.204C466.745 466.204 463.319 467.946 463.648 468.457C463.797 468.688 463.331 469.403 462.614 470.047L461.31 471.218L461.088 470.362C460.89 469.592 460.79 469.629 460.096 470.729C459.672 471.401 459.285 472.594 459.238 473.378C459.175 474.403 458.802 474.777 457.912 474.704C457.231 474.649 456.54 474.337 456.378 474.011C456.214 473.686 455.809 473.254 455.477 473.052C455.145 472.85 454.96 472.591 455.065 472.476C455.171 472.361 454.748 472.116 454.126 471.931C453.078 471.619 453.293 470.526 454.771 468.65C455.835 467.299 456.2 460.334 455.206 460.334C454.651 460.334 454.139 460.747 454.068 461.252C453.913 462.36 453.764 462.855 452.875 465.226C452.497 466.235 451.972 467.831 451.709 468.772C450.974 471.397 448.997 474.854 448.055 475.164C447.59 475.316 447.159 475.867 447.097 476.387C446.953 477.602 445.706 478.188 443.264 478.188C441.957 478.188 441.317 478.022 441.317 477.683C441.317 476.933 439.497 476.232 437.933 476.38C437.178 476.451 436.586 476.365 436.618 476.187C436.653 476.01 436.582 475.425 436.466 474.887C436.27 473.969 436.113 474.03 433.94 475.865C432.665 476.941 431.313 478.182 430.936 478.622C430.456 479.183 429.756 479.403 428.6 479.356C427.68 479.318 427.066 479.429 427.212 479.605C427.407 479.84 427.002 479.859 425.645 479.679C422.217 479.227 421.343 478.732 421.627 477.408C421.841 476.415 421.56 476.095 420.428 476.042C418.844 475.966 416.622 477.174 416.446 478.206C416.358 478.726 416.217 478.701 415.312 478.005C414.198 477.147 413.51 477.07 410.506 477.467C408.765 477.697 408.622 477.661 409.165 477.127C409.5 476.798 409.292 476.456 408.702 476.366C408.103 476.275 407.576 475.372 407.507 474.322C407.394 472.623 407.311 472.547 406.644 473.541C406.237 474.147 406.056 475.495 406.241 476.537C406.439 477.653 406.182 478.433 405.617 478.433C405.09 478.433 404.658 478.701 404.658 479.03C404.658 479.358 404.213 479.695 403.667 479.778C403.122 479.861 402.666 479.73 402.653 479.487C402.607 478.692 401.948 474.415 401.752 473.664C401.56 472.93 401.56 472.93 400.587 473.532C400.051 473.863 399.457 474.524 399.266 474.999C398.413 477.123 397.395 478.011 395.685 478.121C394.727 478.183 393.72 478.443 393.449 478.7C392.899 479.219 390.843 479.339 390.689 478.861C390.635 478.693 390.613 477.399 390.643 475.987C390.715 472.35 389.776 469.944 388.505 470.504C387.435 470.976 387.224 471.303 385.823 474.642C384.786 477.114 383.214 479.06 382.86 478.311C382.733 478.041 382.685 477.711 382.753 477.577C382.821 477.442 381.536 477.713 379.898 478.179C378.259 478.645 376.918 479.186 376.918 479.381C376.918 479.577 376.625 479.665 376.266 479.576C375.907 479.488 375.016 479.538 374.285 479.688C373.553 479.838 372.955 479.885 372.955 479.794C372.955 479.703 371.964 479.799 370.753 480.009C367.46 480.578 366.019 480.48 366.019 479.686C366.019 478.64 364.901 477.454 363.914 477.454C363.437 477.454 363.047 477.613 363.047 477.807C363.047 478.479 361.056 478.459 359.999 477.775C358.974 477.112 358.886 477.104 357.524 477.562C356.747 477.824 356.112 478.168 356.112 478.329C356.112 478.489 355.28 478.674 354.262 478.74C353.007 478.821 351.867 479.321 350.712 480.297C349.777 481.088 348.603 481.926 348.103 482.159C347.604 482.393 347.188 482.888 347.18 483.26C347.17 483.632 346.749 484.098 346.242 484.296C345.449 484.605 345.231 484.598 344.681 484.245C343.748 483.644 338.791 483.948 333.191 484.949C330.666 485.401 328.026 485.77 327.325 485.77C326.623 485.77 325.262 485.946 324.3 486.161C322.277 486.613 320.027 486.391 320.905 485.826C321.234 485.615 320.996 485.365 320.378 485.271C319.544 485.144 319.571 484.749 320.483 483.744C321.732 482.366 321.269 481.458 319.46 481.734C318.911 481.817 318.431 482.127 318.393 482.422C318.328 482.92 318.271 482.925 317.573 482.485C316.631 481.891 316.154 482.11 314.469 483.912C313.105 485.371 310.143 486.422 305.86 486.967L303.66 487.247L304.288 485.224C304.867 483.357 304.789 483.228 303.267 483.538C301.87 483.822 301.602 483.822 301.505 483.538C301.442 483.353 301.287 483.092 301.16 482.957C301.034 482.823 300.863 482.52 300.779 482.285C300.44 481.324 297.834 482.18 296.127 483.813C296.056 483.881 295.66 484.156 295.246 484.425C294.833 484.694 294.327 485.052 294.124 485.22C293.921 485.388 292.898 485.525 291.851 485.525C290.034 485.525 290.012 485.467 291.37 484.241C292.153 483.535 293.139 482.792 293.56 482.591C294.484 482.149 293.484 481.001 292.176 481.001C291.663 481.001 291.076 481.221 290.871 481.49C290.667 481.759 289.959 482.056 289.298 482.151C288.638 482.245 287.519 482.795 286.812 483.374C284.136 485.562 283.827 485.68 284.383 484.303C284.681 483.563 285.327 482.517 285.817 481.979C286.308 481.441 286.727 480.286 286.748 479.411C286.779 478.332 287.084 477.937 287.71 478.181C288.522 478.498 288.683 478.498 289.056 478.181C289.758 477.584 291.694 474.908 292.253 473.761C292.541 473.169 293.197 471.97 293.71 471.096C295.045 468.821 295.986 466.061 295.378 466.204C294.841 466.331 291.839 469.686 291.11 470.973C290.882 471.377 290.44 472.037 290.128 472.441C289.817 472.844 289.199 473.932 288.756 474.857C288.313 475.782 287.539 476.607 287.037 476.691C286.535 476.775 285.546 477.669 284.84 478.677C284.133 479.686 283.049 480.666 282.431 480.855C281.814 481.044 281.478 481.209 281.685 481.222C282.418 481.268 280.627 483.324 279.736 483.46C279.238 483.536 278.831 483.792 278.831 484.028C278.831 484.265 277.249 484.771 275.315 485.151C273.381 485.532 272.023 485.989 272.299 486.166C272.574 486.343 272.423 486.546 271.961 486.616C270.653 486.816 267.706 485.535 268.423 485.078C269.161 484.607 271.561 478.523 271.557 477.132C271.554 475.746 270.177 476.531 266.876 479.803C264.469 482.188 263.384 483.657 263.055 484.975C262.953 485.386 259.54 485.365 258.125 484.944C257.367 484.718 257.293 484.411 257.904 484.015C259.474 482.995 260.378 480.145 259.131 480.145C258.523 480.145 257.957 480.503 257.874 480.94C257.791 481.377 257.62 481.845 257.493 481.979C257.367 482.114 257.211 482.526 257.149 482.896C257.086 483.266 256.467 483.569 255.773 483.569C254.523 483.569 252.08 485.636 252.08 486.694C252.08 487.008 251.468 487.238 250.629 487.238C249.831 487.238 248.701 487.458 248.117 487.727C247.534 487.996 247.35 488.216 247.709 488.216C248.067 488.216 247.805 488.381 247.127 488.583C244.494 489.366 243.943 488.954 244.655 486.734C245.279 484.785 245.157 484.481 243.64 484.207C241.363 483.796 240.451 482.299 241.463 480.634C243.397 477.452 243.483 476.84 241.952 477.154C241.165 477.315 240.608 477.696 240.716 478.001C240.824 478.306 240.581 478.665 240.178 478.8C239.775 478.934 239.143 479.705 238.773 480.512C237.764 482.714 235.451 484.303 233.253 484.303C232.021 484.303 231.032 484.601 230.209 485.22C229.538 485.724 228.201 486.275 227.238 486.443C226.275 486.611 225.193 487.079 224.834 487.482C224.427 487.94 223.56 488.216 222.526 488.216C221.081 488.216 220.935 487.98 221.374 486.347C221.706 485.116 221.48 484.345 220.712 484.085C220.071 483.869 219.366 483.747 219.145 483.814C218.557 483.992 215.603 487.638 214.835 489.133C213.856 491.039 212.288 490.689 212.533 488.618C212.65 487.629 212.43 486.694 212.044 486.54C210.752 486.024 205.779 486.221 203.71 486.871C202.638 487.207 201.602 487.482 201.408 487.482C201.214 487.482 201.454 486.159 201.942 484.542C202.429 482.925 202.516 481.525 202.136 481.431C200.928 481.132 199.601 481.943 199.585 482.988C199.564 484.456 198.512 485.526 197.093 485.526C196.411 485.526 195.14 485.883 194.267 486.32C192.742 487.084 192.674 487.091 192.542 486.504C192.467 486.168 192.302 485.782 192.176 485.648C192.049 485.513 191.871 485.183 191.779 484.914C191.641 484.506 191.455 484.485 190.653 484.792C189.866 485.092 189.69 485.065 189.677 484.642C189.668 484.357 190.074 483.587 190.578 482.93C192.01 481.063 191.99 477.764 190.543 477.083C190.261 476.951 189.914 474.729 189.77 472.145C189.626 469.56 189.208 466.928 188.841 466.295C188.047 464.925 185.718 464.53 185.66 465.756C185.581 467.466 184.641 470.274 183.875 471.096C183.406 471.599 183.054 469.027 183.022 464.859C182.943 454.552 182.653 451.285 181.817 451.285C181.409 451.285 181.045 451.423 181.008 451.591C180.972 451.759 180.67 452.612 180.34 453.487C180.009 454.361 179.556 456.512 179.334 458.267C178.905 461.649 178.106 463.19 176.669 463.409C176.186 463.483 175.791 463.812 175.791 464.14C175.791 464.552 175.238 464.737 174.007 464.737C173.027 464.737 171.692 464.868 171.043 465.029C170.128 465.254 169.915 465.104 170.101 464.362C170.273 463.676 169.946 463.402 168.95 463.398C168.184 463.395 167.452 463.213 167.322 462.994C166.237 461.169 163.097 461.059 163.752 462.868C163.859 463.163 163.437 463.278 162.555 463.194C161.247 463.07 159.938 463.81 158.526 465.471C158.24 465.807 156.658 466.467 155.011 466.938C153.364 467.409 151.971 467.904 151.916 468.039C151.705 468.547 150.224 467.023 150.129 466.201C150.075 465.728 149.117 464.92 148.001 464.406C146.427 463.682 146.118 463.232 146.621 462.403C147.151 461.53 146.887 461.214 145.183 460.679C144.035 460.319 143.095 459.874 143.095 459.69C143.095 459.507 142.484 459.356 141.737 459.356C140.397 459.356 140.231 459.551 138.58 463.072C138.028 464.248 137.596 464.477 135.805 464.54C134.227 464.595 133.605 464.814 133.378 465.391C133.179 465.897 132.204 466.307 130.57 466.571C128.239 466.948 127.94 466.948 126.248 466.57C125.198 466.336 123.257 466.198 121.653 466.245C119.061 466.321 118.801 466.245 117.726 465.104C116.152 463.432 115.375 463.025 113.761 463.025C113.002 463.025 112.381 462.805 112.381 462.536C112.381 462.267 112.024 462.047 111.589 462.047C110.011 462.047 108.417 462.647 108.374 463.257C108.329 463.924 105.625 466.534 105.513 466.021C105.477 465.853 104.379 465.715 103.075 465.715C100.674 465.715 98.9849 465.154 99.4329 464.505C99.6371 464.21 99.4233 464.204 98.103 464.474C97.2372 464.652 96.5288 464.686 96.5288 464.551C96.5288 464.416 95.6364 464.247 94.5458 464.177C93.4553 464.106 92.7938 464.141 93.0758 464.254C93.3578 464.366 93.1353 464.528 92.5819 464.612C91.9346 464.711 91.5527 464.084 91.5124 462.856C91.3508 457.924 91.0287 456.678 89.8412 456.385C88.8505 456.14 88.5964 456.37 88.5712 457.534C88.5407 458.849 88.403 458.945 87.1234 458.528C86.141 458.207 85.9944 457.934 86.6448 457.633C87.8799 457.064 87.0746 450.615 85.7181 450.211C84.8827 449.963 82.2628 439.498 82.8736 438.849C83.4403 438.247 81.2523 427.283 80.5438 427.175C80.0539 427.1 79.8576 426.958 80.1073 426.858C80.8832 426.548 80.8903 423.47 80.1276 418.757C79.7237 416.269 79.4266 411.536 79.4668 408.241C79.5075 404.945 79.5424 399.332 79.5461 395.768C79.5508 388.958 79.76 385.855 80.3326 384.028C80.5221 383.423 80.8738 370.436 81.114 355.169C81.5276 328.875 82.0534 317.094 83.1604 309.311C83.4287 307.428 83.8884 302.696 84.183 298.795C84.4778 294.894 84.899 289.725 85.1195 287.308C85.371 284.55 85.178 283.047 84.6009 283.272C83.991 283.51 83.7288 283.055 83.822 281.919C83.9612 280.222 83.9683 280.218 84.6419 281.43C85.2224 282.475 85.344 282.321 85.477 280.376C85.5894 278.736 85.3191 278.147 84.5116 278.271C83.6969 278.395 83.5719 278.015 84.0543 276.879C84.9432 274.786 85.079 266.517 84.2301 266.178C83.5127 265.891 83.3783 242.162 84.0934 241.986C84.3256 241.928 84.0775 241.595 83.5367 241.246C82.1437 240.341 82.607 210.683 84.0576 207.894C85.0164 206.051 85.6411 200.191 85.5392 193.995C85.4848 190.7 85.5138 187.316 85.6012 186.475C85.7323 185.224 85.4751 184.946 84.1851 184.946C82.7922 184.946 82.6715 184.541 83.1486 181.461C83.4459 179.544 83.7274 177.866 83.7749 177.731C83.8207 177.597 83.8526 175.946 83.8419 174.063C83.8324 172.18 83.9791 169.868 84.1707 168.927C84.3618 167.985 84.7883 158.812 85.1181 148.543C85.5408 135.377 85.4036 129.777 84.6521 129.554C83.5039 129.212 82.8844 109.86 83.9278 106.928C84.2388 106.053 84.9592 104.145 85.5283 102.686C86.0974 101.228 86.4984 99.9624 86.4191 99.8739C86.3405 99.7848 86.6031 98.8874 87.0037 97.8786C87.7121 96.0947 88.4931 91.5193 89.1954 85.0385C89.9092 78.4521 90.7994 74.2709 91.5284 74.0804C91.943 73.9725 91.9461 73.4297 91.5379 72.8752C91.1274 72.3206 91.0093 71.1437 91.2762 70.2596C91.543 69.3756 91.7346 68.5422 91.7021 68.4076C91.6665 68.2732 91.3992 66.7324 91.1014 64.9837C90.8036 63.235 90.346 60.6487 90.0845 59.2362C89.8228 57.8238 89.3815 55.2535 89.1033 53.5244C88.8254 51.7953 88.3743 50.2914 88.1015 50.1824C87.8286 50.0732 88.1269 49.9413 88.7639 49.8889C89.4907 49.8286 89.901 49.2289 89.8646 48.2784C89.829 47.445 90.2102 46.763 90.7032 46.763C91.1961 46.763 91.39 46.3503 91.1341 45.8458C89.7837 43.1867 89.4723 40.6487 90.4964 40.6487C91.093 40.6487 91.581 40.9725 91.581 41.3681C91.581 41.7637 92.1026 42.1669 92.7402 42.2641C93.5155 42.382 93.6934 42.308 93.2777 42.0411C92.9311 41.8182 93.3533 41.469 94.2309 41.2524C95.4301 40.9564 95.6676 40.5754 95.2263 39.6556C94.6522 38.459 95.8185 37.9943 97.0303 38.9367C97.3764 39.2057 98.3397 39.4258 99.1714 39.4258C100.003 39.4258 100.917 39.646 101.202 39.9151C101.487 40.1841 102.14 40.4041 102.654 40.4041C103.167 40.4041 103.337 40.3038 103.032 40.1822C102.726 40.0605 102.894 39.7024 103.406 39.3874C104.126 38.9434 104.35 38.9137 104.398 39.2553C104.522 40.124 107.608 43.0945 108.387 43.0945C108.824 43.0945 109.206 42.6532 109.236 42.114C109.302 40.9325 111.249 40.3883 115.971 40.2313C121.041 40.0626 125.097 40.5636 126.798 41.5689C128.011 42.2853 128.476 42.3722 129.726 42.1161C130.543 41.9487 131.212 41.5015 131.212 41.1223C131.212 40.7432 131.658 40.3649 132.203 40.2819C132.748 40.1991 133.194 40.366 133.194 40.6522C133.194 41.0169 133.715 41.1493 134.927 41.0925C136.238 41.031 136.736 40.7243 136.966 39.836C137.38 38.2361 139.485 38.4635 140.139 40.1788C141.211 42.9867 144.291 42.6561 144.009 39.7635C143.76 37.2033 144.59 36.8757 145.507 39.1726C145.884 40.1186 147.019 41.4705 148.027 42.1769L149.861 43.4613L149.55 42.0718C149.312 41.0087 149.541 40.711 150.529 40.8045C151.238 40.8722 152.113 40.8045 152.472 40.6654C153.555 40.2329 154.833 40.3698 155.17 40.9545C155.43 41.407 156.014 41.4908 158.459 41.4265C160.093 41.3838 161.607 41.2261 161.821 41.0765C162.035 40.9272 163.262 40.5645 164.546 40.2708C165.948 39.9499 166.886 39.4548 166.894 39.031C166.903 38.6428 167.177 38.0764 167.508 37.7722C168.063 37.2607 168.245 37.2882 169.926 38.139C170.926 38.645 172.226 39.3796 172.816 39.7714C173.632 40.3129 174.166 40.4155 175.041 40.1994C176.779 39.7704 178.477 39.8569 179.057 40.4041C180.04 41.3325 181.742 40.9087 181.757 39.7315C181.767 38.8914 182.038 38.6714 182.733 38.9367C183.261 39.1385 183.7 39.6705 183.708 40.1189C183.729 41.2809 186.125 40.984 186.49 39.7738C187.541 36.2936 189.632 32.2447 190.444 32.1173C191.24 31.9919 192.135 31.1608 193.238 29.5207C193.329 29.3861 193.486 28.5607 193.587 27.6864C193.699 26.7184 194.055 26.2751 194.497 26.5528C194.896 26.8036 195.062 28.2163 194.865 29.6921C194.513 32.3239 194.546 32.3722 196.585 32.2125C198.402 32.07 198.586 32.126 198.048 32.6539C197.352 33.3388 199.034 33.7684 199.994 33.1509C200.338 32.9294 200.638 31.7964 200.66 30.6331C200.681 29.4696 201.134 28.3583 201.664 28.1632C202.358 27.9075 202.589 28.0817 202.492 28.787C202.3 30.1725 202.451 30.4819 203.229 30.2901C204.157 30.0612 204.37 29.4465 204.534 26.53C204.611 25.1543 204.396 23.9174 204.055 23.7815C203.693 23.6367 204.071 23.5947 204.974 23.6799C205.863 23.7639 206.511 24.1179 206.511 24.5186C206.511 24.8999 206.964 25.2809 207.518 25.3654C208.072 25.4495 208.357 25.8935 208.153 26.3512C207.949 26.8091 208.173 27.1236 208.654 27.0505C209.134 26.9777 209.506 27.228 209.482 27.6076C209.382 29.1631 210.757 31.1104 211.956 31.1104C213.692 31.1104 214.576 28.3964 213.895 25.1552C213.405 22.8152 213.543 22.4647 215.067 22.1895C216.317 21.9641 217.638 21.9429 219.828 22.113C221.495 22.2426 223.417 22.3573 224.098 22.368C224.779 22.3806 225.336 22.5341 225.336 22.7134C225.336 22.8928 226.005 23.0394 226.823 23.0394C227.64 23.0394 228.309 23.1498 228.309 23.284C228.309 23.4186 228.978 23.5286 229.795 23.5286C230.794 23.5286 231.309 23.7894 231.366 24.3235C231.715 27.5791 231.953 28.423 232.565 28.574C233.431 28.7879 233.47 28.7137 234.241 25.3629C234.334 24.9594 234.635 24.7668 234.91 24.935C235.539 25.32 238.855 25.3345 239.802 24.9561C240.193 24.7997 240.708 23.8461 240.945 22.8367C241.201 21.7438 241.922 20.8668 242.726 20.6682C243.469 20.4847 243.825 20.1727 243.518 19.9749C243.21 19.777 243.463 19.6152 244.08 19.6152C245.776 19.6152 247.359 20.8595 246.788 21.7441C246.43 22.2986 246.862 22.7098 248.266 23.1504C251.163 24.0596 253.515 23.9528 254.76 22.8558C255.766 21.9687 255.804 21.9923 255.925 23.5756C256.032 24.9738 256.374 25.2685 258.268 25.5959C260.333 25.9532 260.596 25.9426 262.126 25.4422C263.341 25.0445 265.222 24.8654 269.365 24.7528C274.92 24.6019 274.975 24.6069 276.471 25.3854C277.301 25.8169 277.897 26.3184 277.796 26.4999C277.695 26.6816 277.666 28.1847 277.73 29.8405C277.813 31.9848 278.165 32.8025 278.952 32.6825C279.611 32.5821 279.849 32.1332 279.541 31.5675C279.258 31.047 279.43 30.6209 279.923 30.6209C280.416 30.6209 280.824 30.1531 280.828 29.5815C280.849 27.3271 282.027 25.9143 283.996 25.7871C285.084 25.7168 286.114 25.3703 286.443 24.964C286.827 24.4907 287.617 24.2621 288.87 24.2621C290.474 24.2621 290.728 24.0673 290.728 22.8354C290.728 22.0507 291.029 21.3342 291.397 21.2434C292.282 21.0251 296.672 22.0526 296.672 22.4781C296.672 22.6606 297.367 22.8757 298.215 22.9561C299.064 23.0364 299.568 23.2256 299.336 23.3764C298.636 23.8314 300.415 24.7159 301.921 24.6613C302.696 24.6339 304.092 24.4219 305.025 24.1916C307.878 23.4874 308.561 23.7088 308.561 25.3364C308.561 26.5007 308.941 26.9359 310.048 27.0408C311.228 27.1524 311.534 26.963 311.534 26.1186C311.534 25.4721 312.116 24.9364 313.02 24.7512C313.837 24.5837 314.537 24.2125 314.576 23.9264C314.641 23.4354 314.688 23.4328 315.396 23.8788C315.861 24.1722 316.399 24.2506 316.813 24.0851C317.18 23.9385 318.373 23.8761 319.463 23.9466C322.029 24.1122 328.377 22.9345 328.377 22.2928C328.377 21.9283 329.063 21.816 331.291 21.816C332.894 21.816 334.503 21.9352 334.867 22.0805C335.23 22.226 336.595 22.2789 337.897 22.1983C340.059 22.0644 340.266 22.1269 340.266 22.9123C340.266 23.7329 340.428 23.7729 343.734 23.7729C346.028 23.7729 347.202 23.6588 347.202 23.4343C347.202 23.0548 352.009 22.188 352.898 22.4072C353.211 22.485 353.39 23.0568 353.295 23.6787C353.129 24.7592 353.231 24.8043 355.581 24.6934C356.933 24.6294 357.86 24.6494 357.639 24.7373C357.418 24.8251 358.1 25.0306 359.155 25.1932C360.937 25.4679 361.075 25.4152 361.104 24.4472C361.129 23.5817 361.339 23.4704 362.342 23.7877C363.006 23.998 364.33 24.2421 365.283 24.3304C366.398 24.4332 367.017 24.7496 367.017 25.2149C367.017 25.613 367.715 26.1111 368.568 26.3215C369.42 26.5321 370.022 27.0077 369.904 27.3785C369.494 28.673 369.996 30.1315 370.852 30.1315C371.327 30.1315 372.013 29.481 372.378 28.686C372.742 27.891 373.648 27.1161 374.39 26.9639C375.132 26.8119 376.043 26.3894 376.413 26.0252C377.029 25.4191 377.194 25.3993 378.353 25.7906C379.958 26.3323 381.879 26.3433 381.879 25.8106C381.879 24.9675 383.138 25.7541 383.397 26.7596C383.861 28.56 385.791 30.913 387.448 31.7C388.503 32.2008 389.305 33.5253 389.829 35.6343C390.264 37.3829 390.928 39.1132 391.303 39.479C391.889 40.0491 392.185 40.0954 393.373 39.8023C394.451 39.5361 394.758 38.5461 394.754 35.3461C394.749 31.271 395.003 30.828 398.934 28.0526C399.505 27.6489 400.055 26.5779 400.156 25.6723C400.343 23.9841 401.596 23.0748 401.818 24.4655C401.886 24.8914 402.053 25.35 402.19 25.4845C402.326 25.6191 402.493 25.8392 402.561 25.9737C402.629 26.1082 404.245 26.2182 406.153 26.2182C409.034 26.2182 409.652 26.3111 409.805 26.7685C410.4 28.5419 410.588 29.7138 410.531 31.2876C410.456 33.3525 410.932 33.6612 413.644 33.3029C415.178 33.1002 415.587 32.7674 415.672 31.6513C415.732 30.8827 416.112 29.5934 416.518 28.7862C417.118 27.591 417.316 27.4776 417.584 28.1749C417.765 28.6456 418.009 29.251 418.127 29.52C418.246 29.789 418.386 30.2465 418.44 30.5365C418.512 30.9277 419.019 31.0329 420.403 30.9434C422.476 30.8097 423.453 29.8195 423.495 27.808C423.526 26.3642 424.144 26.096 427.44 26.096C430.295 26.096 431.11 26.6994 431.3 28.9552C431.365 29.7207 431.836 30.411 432.347 30.4889C433.703 30.6957 435.208 29.9026 434.6 29.3018C434.092 28.799 434.129 28.7974 436.126 29.2315C438.107 29.663 438.189 29.663 438.644 29.2315C438.902 28.9863 439.19 28.2938 439.282 27.6925C439.374 27.0911 439.633 26.5539 439.857 26.4987C440.08 26.4435 441.796 26.5777 443.669 26.7971C447.574 27.2546 449.251 27.301 449.251 26.9514C449.251 26.5933 450.873 26.6529 452.577 27.0744C453.395 27.2762 454.826 27.4412 455.758 27.4412C457.229 27.4412 457.381 27.6353 456.914 28.9087C456.499 30.0372 456.681 30.3761 457.7 30.3761C459.779 30.3761 460.09 30.961 460.281 35.2431C460.381 37.4492 460.796 39.5953 461.206 40.0123C461.624 40.437 461.95 38.7994 461.947 36.2896C461.947 33.825 462.208 31.7431 462.532 31.663C462.856 31.5827 463.169 32.6638 463.226 34.065C463.459 39.751 463.9 43.1228 464.429 43.2534C464.736 43.3299 465.727 42.9667 466.63 42.4476C467.957 41.6856 468.244 40.7527 468.124 37.5989C468.043 35.4512 468.251 33.7617 468.588 33.8449C468.924 33.9277 469.219 35.1899 469.244 36.6494C469.29 39.2658 471.098 41.6265 473.06 41.6265C474.135 41.6265 474.215 41.4784 474.462 39.0584C474.861 35.1291 475.056 34.5338 475.941 34.5338C476.452 34.5338 477.048 35.7169 477.265 37.1629C477.483 38.6089 477.969 40.2873 478.345 40.8927C478.722 41.498 479.216 42.6419 479.443 43.4349C479.911 45.0711 480.576 45.3377 483.683 45.1372C485.291 45.033 486.33 44.6424 487.562 43.6777C488.487 42.953 489.497 42.3618 489.807 42.3639C491.129 42.3764 492.677 42.7791 494.219 43.5218C496.115 44.4351 496.597 44.4776 498.385 43.8887C499.548 43.5055 499.664 43.5366 499.485 44.1849C499.342 44.7027 499.779 44.9342 501.02 44.9975C502.088 45.0527 502.753 44.9386 502.753 44.7015C502.753 44.076 504.465 44.2625 505.18 44.9659C505.899 45.6723 506.053 50.0996 505.369 50.3804C504.968 50.545 504.267 54.7669 503.167 63.6378C502.892 65.8573 502.485 68.0035 502.263 68.407C501.811 69.2265 500.525 74.0719 500.607 74.6437C500.901 76.6842 500.674 82.0865 500.291 82.181C500.02 82.2474 500.291 82.4504 500.902 82.6308C501.718 82.8738 501.685 83.0545 500.772 83.3259C499.787 83.6189 499.79 83.7678 500.787 84.0648C501.734 84.3463 502.015 86.0959 501.942 91.2575C501.867 96.6176 502.119 98.1041 503.123 98.1993C504.151 98.2972 504.348 101.275 504.128 113.446C503.977 121.765 503.857 129.727 503.861 131.14C503.861 132.552 503.851 134.038 503.831 134.442C503.815 134.845 503.815 135.726 503.84 136.398C503.933 139.162 503.897 149.885 503.794 150.339C503.733 150.608 503.69 151.708 503.699 152.784C503.709 153.861 503.489 156.502 503.211 158.654C502.743 162.268 502.485 170.968 502.836 171.25C502.92 171.317 502.951 171.444 502.904 171.531C502.858 171.619 502.556 174.146 502.235 177.148C501.912 180.164 501.211 182.736 500.668 182.898C500.014 183.092 500.033 183.243 500.725 183.349C501.296 183.436 501.757 183.693 501.748 183.921C501.739 184.278 501.599 184.284 500.753 183.967C500.014 183.691 499.824 183.792 499.983 184.378C500.099 184.806 500.546 185.102 500.978 185.037C501.41 184.971 501.764 185.419 501.764 186.032C501.764 186.75 501.324 187.154 500.525 187.166C499.534 187.181 499.534 187.21 500.525 187.309C501.942 187.45 502.23 188.37 500.858 188.37C500.076 188.37 500.122 188.868 501.06 190.571C501.171 190.773 500.662 192.423 499.93 194.239C499.197 196.055 498.803 197.871 499.055 198.275C499.306 198.678 499.158 199.18 498.725 199.389C497.946 199.765 496.6 207.097 496.757 210.116C496.803 210.979 497.233 211.804 497.716 211.95C499.288 212.426 501.932 215.489 501.237 216.03C500.856 216.327 500.954 216.497 501.461 216.419C502.525 216.257 505.654 220.534 505.632 222.121C505.622 222.726 505.672 223.386 505.738 223.588C505.806 223.79 505.805 225.021 505.738 226.323C505.67 227.625 505.893 229.058 506.234 229.506C506.575 229.955 506.638 230.375 506.375 230.44L506.362 230.44Z" fill="#8cff00"/>
</svg>
