<svg width="213" height="35" viewBox="0 0 213 35" fill="none" xmlns="http://www.w3.org/2000/svg">
<path d="M61.1078 27.611H57.3658V8.97845H63.3272L65.4691 15.6108C66.6218 19.3958 67.2584 21.7786 67.3788 22.7593H67.4304C67.5165 21.8474 68.1358 19.4646 69.2885 15.6108L71.3789 8.97845H77.1854V27.611H73.3918V21.1593C73.3918 18.3377 73.4692 15.6796 73.6241 13.185H73.5466C73.495 13.4602 73.3574 13.9678 73.1337 14.7076C72.9101 15.4474 72.6262 16.3506 72.2821 17.4173C71.9552 18.4667 71.723 19.2237 71.5853 19.6883L69.1337 27.611H65.4949L62.9659 19.6883C62.7938 19.1549 62.5271 18.3463 62.1658 17.2624C61.8046 16.1613 61.5121 15.2753 61.2884 14.6043C61.082 13.9334 60.9529 13.4602 60.9013 13.185H60.8497C61.0217 16.557 61.1078 19.2065 61.1078 21.1335V27.611Z" fill="#2D1E2F"/>
<path d="M92.8824 24.5141C92.8824 25.6496 92.9942 26.6819 93.2179 27.611H89.7339C89.6307 27.2153 89.5533 26.5701 89.5017 25.6754C88.2802 27.1722 86.6973 27.9206 84.7532 27.9206C83.2564 27.9206 82.0435 27.5249 81.1145 26.7335C80.1854 25.9249 79.7209 24.8496 79.7209 23.5077C79.7209 20.8066 81.7769 19.1377 85.8887 18.5012L89.5017 17.9334V17.7011C89.5017 17.0302 89.2522 16.5226 88.7533 16.1785C88.2716 15.8173 87.592 15.6366 86.7146 15.6366C84.7188 15.6366 83.5145 16.5054 83.1016 18.2431L80.237 16.1785C81.4242 13.7355 83.6263 12.514 86.8436 12.514C88.7877 12.514 90.2759 12.9527 91.3082 13.8301C92.3576 14.7076 92.8824 15.9549 92.8824 17.5721V24.5141ZM83.2823 23.3528C83.2823 23.8518 83.4801 24.2475 83.8758 24.5399C84.2715 24.8152 84.8049 24.9529 85.4758 24.9529C86.5597 24.9529 87.4974 24.6088 88.2888 23.9206C89.0974 23.2324 89.5017 22.2517 89.5017 20.9786V20.798L86.9726 21.2109C85.6135 21.4345 84.6586 21.7098 84.1081 22.0367C83.5575 22.3464 83.2823 22.7851 83.2823 23.3528Z" fill="#2D1E2F"/>
<path d="M110.133 25.9851C110.133 28.6002 109.462 30.6045 108.12 31.9981C106.795 33.4089 104.911 34.1143 102.468 34.1143C98.9069 34.1143 96.5326 32.6949 95.3455 29.8561L98.2617 27.8432C98.4337 28.8067 98.8896 29.5723 99.6294 30.14C100.386 30.725 101.307 31.0175 102.391 31.0175C103.681 31.0175 104.705 30.6045 105.462 29.7787C106.236 28.9701 106.623 27.9034 106.623 26.5787V25.3142C106.124 26.0195 105.462 26.5701 104.636 26.9658C103.827 27.3443 102.95 27.5335 102.004 27.5335C100.06 27.5335 98.4681 26.8368 97.2294 25.4432C95.9907 24.0496 95.3713 22.2603 95.3713 20.0754C95.3713 17.7184 96.0251 15.8689 97.3326 14.5269C98.6574 13.185 100.232 12.514 102.055 12.514C103.982 12.514 105.505 13.2022 106.623 14.5785V12.7979H110.133V25.9851ZM98.9585 19.9721C98.9585 21.2969 99.3112 22.3722 100.017 23.198C100.722 24.0066 101.642 24.4109 102.778 24.4109C103.931 24.4109 104.86 24.0066 105.565 23.198C106.27 22.3722 106.623 21.2969 106.623 19.9721C106.623 18.6646 106.262 17.6151 105.539 16.8237C104.834 16.0323 103.905 15.6366 102.752 15.6366C101.617 15.6366 100.696 16.0323 99.9907 16.8237C99.3026 17.6151 98.9585 18.6646 98.9585 19.9721Z" fill="#2D1E2F"/>
<path d="M116.566 27.611H113.056V12.8237H116.566V14.8882C117.856 13.3054 119.559 12.514 121.675 12.514C123.362 12.514 124.678 13.0387 125.624 14.0882C126.587 15.1205 127.069 16.5312 127.069 18.3205V27.611H123.534V18.9915C123.534 17.9248 123.276 17.1076 122.759 16.5398C122.26 15.9549 121.546 15.6624 120.617 15.6624C119.396 15.6624 118.415 16.1699 117.675 17.185C116.936 18.1829 116.566 19.5162 116.566 21.1851V27.611Z" fill="#2D1E2F"/>
<path d="M143.282 23.6109C142.714 25.0045 141.863 26.0711 140.727 26.8109C139.592 27.5507 138.25 27.9206 136.701 27.9206C134.465 27.9206 132.658 27.2153 131.282 25.8045C129.906 24.3765 129.218 22.5184 129.218 20.2302C129.218 17.9076 129.889 16.0409 131.23 14.6301C132.572 13.2194 134.362 12.514 136.598 12.514C138.972 12.514 140.796 13.3054 142.069 14.8882C143.36 16.471 143.893 18.5872 143.669 21.2367H132.908C132.942 22.2862 133.312 23.155 134.018 23.8432C134.74 24.5141 135.652 24.8496 136.753 24.8496C138.56 24.8496 139.704 23.9722 140.185 22.2173L143.282 23.6109ZM136.572 15.5334C135.626 15.5334 134.835 15.7914 134.198 16.3076C133.562 16.8237 133.175 17.5119 133.037 18.3721H140.031C139.91 17.5119 139.532 16.8237 138.895 16.3076C138.276 15.7914 137.502 15.5334 136.572 15.5334Z" fill="#2D1E2F"/>
<path d="M153.591 27.0174C152.989 27.6196 152.069 27.9206 150.83 27.9206C149.522 27.9206 148.507 27.5163 147.785 26.7077C147.062 25.8991 146.701 24.7894 146.701 23.3786V15.7914H144.456V12.8237H146.701V11.1462L150.211 8.43651V12.8237H152.946V15.7914H150.211V23.1722C150.211 24.2733 150.598 24.8238 151.372 24.8238C151.974 24.8238 152.473 24.5916 152.869 24.127L153.591 27.0174Z" fill="#2D1E2F"/>
<path d="M159.132 11.172H155.597V7.76553H159.132V11.172ZM159.107 27.611H155.597V12.8237H159.107V27.611Z" fill="#2D1E2F"/>
<path d="M175.466 23.2496C174.915 24.7636 174.072 25.9249 172.937 26.7335C171.801 27.5249 170.425 27.9206 168.808 27.9206C166.605 27.9206 164.816 27.2153 163.44 25.8045C162.063 24.3765 161.375 22.5098 161.375 20.2044C161.375 17.9334 162.055 16.0839 163.414 14.6559C164.79 13.228 166.571 12.514 168.756 12.514C170.39 12.514 171.793 12.9269 172.962 13.7527C174.132 14.5613 174.975 15.7054 175.492 17.185L172.214 18.527C171.818 16.6001 170.691 15.6366 168.833 15.6366C167.663 15.6366 166.726 16.0495 166.02 16.8753C165.315 17.7011 164.962 18.8108 164.962 20.2044C164.962 21.598 165.315 22.7163 166.02 23.5593C166.726 24.3851 167.672 24.798 168.859 24.798C170.7 24.798 171.818 23.8346 172.214 21.9077L175.466 23.2496Z" fill="#2D1E2F"/>
<path d="M195.22 27.611H191.917V25.5722C190.437 27.1378 188.502 27.9206 186.11 27.9206C183.53 27.9206 181.405 27.0174 179.736 25.2109C178.084 23.3872 177.258 21.0732 177.258 18.2689C177.258 15.3957 178.153 13.0473 179.942 11.2236C181.732 9.38276 184.037 8.46232 186.859 8.46232C188.751 8.46232 190.42 8.90103 191.865 9.77846C193.31 10.6387 194.377 11.8344 195.065 13.3656L191.581 15.3785C191.289 14.2947 190.721 13.4516 189.878 12.8495C189.052 12.2301 188.029 11.9204 186.807 11.9204C185.121 11.9204 183.762 12.4968 182.73 13.6495C181.697 14.785 181.181 16.2732 181.181 18.1141C181.181 20.041 181.689 21.6066 182.704 22.8109C183.719 23.998 185.061 24.5916 186.73 24.5916C188.072 24.5916 189.207 24.2045 190.136 23.4303C191.065 22.6388 191.641 21.598 191.865 20.3076H186.342V17.0044H195.22V27.611Z" fill="#2D1E2F"/>
<path d="M201.547 11.172H198.012V7.76553H201.547V11.172ZM201.522 27.611H198.012V12.8237H201.522V27.611Z" fill="#2D1E2F"/>
<path d="M208.954 27.611H205.445V15.7914H203.406V12.8237H205.496C205.548 11.4301 205.969 10.3376 206.761 9.5462C207.552 8.73759 208.628 8.33328 209.987 8.33328C211.088 8.33328 211.931 8.59995 212.516 9.13329L211.871 11.6366C211.492 11.1892 211.019 10.9656 210.451 10.9656C210.004 10.9656 209.634 11.1376 209.342 11.4817C209.049 11.8086 208.894 12.2559 208.877 12.8237H211.69V15.7914H208.954V27.611Z" fill="#2D1E2F"/>
<path fill-rule="evenodd" clip-rule="evenodd" d="M0.489563 0.709869H5.58672H5.90162H32.4108H37.8527H37.8528V6.16151H37.8527V11.4879H32.4108V6.16151H5.90162V11.4623H0.489563V0.709869Z" fill="#FFCA35"/>
<path fill-rule="evenodd" clip-rule="evenodd" d="M16.5377 11.342H11.0737V22.322H5.90496V16.4347H0.489563V27.5952L1.13193 27.5952L5.90496 27.5952L16.5376 27.5952V25.4264H16.5377V11.342Z" fill="#FFCA35"/>
<path fill-rule="evenodd" clip-rule="evenodd" d="M21.8049 11.3577H27.415V22.3302H32.4736V16.4505H37.8533V27.6109H32.4736L21.8052 27.6109V25.4422H21.8049V11.3577Z" fill="#FFCA35"/>
</svg>
