<svg width="290" height="206" viewBox="0 0 290 206" fill="none" xmlns="http://www.w3.org/2000/svg">
<path d="M7.32374 37.4979H0.346069V2.75391H11.4622L15.4563 15.1212C17.6058 22.1791 18.7928 26.6224 19.0173 28.451H19.1136C19.274 26.7507 20.4289 22.3074 22.5784 15.1212L26.4762 2.75391H37.3036V37.4979H30.2297V25.4674C30.2297 20.2061 30.3741 15.2496 30.6628 10.5978H30.5185C30.4222 11.1111 30.1656 12.0575 29.7485 13.437C29.3315 14.8165 28.8021 16.5007 28.1605 18.4898C27.551 20.4467 27.1179 21.8583 26.8612 22.7245L22.2896 37.4979H15.5045L10.7885 22.7245C10.4677 21.73 9.97044 20.2221 9.29673 18.201C8.62303 16.1478 8.07765 14.4956 7.66059 13.2445C7.27562 11.9933 7.03501 11.1111 6.93876 10.5978H6.84252C7.16333 16.8857 7.32374 21.8262 7.32374 25.4193V37.4979Z" fill="white"/>
<path d="M66.5738 31.7233C66.5738 33.8406 66.7823 35.7655 67.1993 37.4979H60.7029C60.5104 36.76 60.366 35.557 60.2698 33.8887C57.992 36.6798 55.0406 38.0753 51.4154 38.0753C48.6243 38.0753 46.3626 37.3375 44.6302 35.8617C42.8978 34.3539 42.0316 32.3488 42.0316 29.8465C42.0316 24.8098 45.8653 21.6979 53.5327 20.5109L60.2698 19.4522V19.0191C60.2698 17.7679 59.8046 16.8215 58.8743 16.1799C57.976 15.5062 56.7088 15.1694 55.0726 15.1694C51.3512 15.1694 49.1055 16.7895 48.3356 20.0297L42.9941 16.1799C45.2077 11.6244 49.3141 9.34661 55.3133 9.34661C58.9384 9.34661 61.7135 10.1647 63.6383 11.8008C65.5953 13.437 66.5738 15.7629 66.5738 18.7785V31.7233ZM48.6724 29.5578C48.6724 30.4881 49.0414 31.226 49.7792 31.7714C50.5171 32.2847 51.5116 32.5413 52.7628 32.5413C54.7839 32.5413 56.5323 31.8997 58.0081 30.6165C59.5159 29.3332 60.2698 27.5046 60.2698 25.1306V24.7937L55.5539 25.5637C53.0194 25.9807 51.2389 26.494 50.2123 27.1036C49.1857 27.681 48.6724 28.4991 48.6724 29.5578Z" fill="white"/>
<path d="M98.7406 34.4662C98.7406 39.3426 97.4894 43.08 94.9871 45.6786C92.5168 48.3093 89.0039 49.6246 84.4484 49.6246C77.8076 49.6246 73.3804 46.9779 71.1668 41.6845L76.6045 37.931C76.9253 39.7275 77.7755 41.1552 79.155 42.2138C80.5666 43.3046 82.2829 43.85 84.304 43.85C86.7101 43.85 88.619 43.08 90.0305 41.5401C91.4742 40.0323 92.196 38.0433 92.196 35.573V33.215C91.2657 34.5304 90.0305 35.557 88.4906 36.2948C86.9828 37.0006 85.3467 37.3535 83.5822 37.3535C79.957 37.3535 76.9895 36.0542 74.6797 33.4557C72.3698 30.8571 71.2149 27.5206 71.2149 23.4463C71.2149 19.0512 72.434 15.6024 74.8721 13.1001C77.3424 10.5978 80.2778 9.34661 83.6785 9.34661C87.2715 9.34661 90.1107 10.6299 92.196 13.1964V9.87595H98.7406V34.4662ZM77.9038 23.2538C77.9038 25.7241 78.5615 27.7292 79.8768 29.2691C81.1922 30.7769 82.9085 31.5308 85.0259 31.5308C87.1753 31.5308 88.9077 30.7769 90.223 29.2691C91.5383 27.7292 92.196 25.7241 92.196 23.2538C92.196 20.8156 91.5223 18.8587 90.1749 17.383C88.8596 15.9072 87.1272 15.1694 84.9777 15.1694C82.8604 15.1694 81.144 15.9072 79.8287 17.383C78.5454 18.8587 77.9038 20.8156 77.9038 23.2538Z" fill="white"/>
<path d="M110.736 37.4979H104.192V9.92407H110.736V13.7738C113.142 10.8223 116.318 9.34661 120.264 9.34661C123.408 9.34661 125.862 10.3251 127.627 12.282C129.423 14.2069 130.322 16.8376 130.322 20.174V37.4979H123.729V21.4252C123.729 19.4362 123.248 17.9123 122.285 16.8536C121.355 15.7629 120.024 15.2175 118.291 15.2175C116.013 15.2175 114.185 16.1639 112.805 18.0567C111.426 19.9174 110.736 22.4037 110.736 25.5155V37.4979Z" fill="white"/>
<path d="M160.554 30.039C159.496 32.6376 157.908 34.6266 155.79 36.0061C153.673 37.3856 151.17 38.0753 148.283 38.0753C144.113 38.0753 140.744 36.76 138.178 34.1294C135.611 31.4666 134.328 28.0018 134.328 23.735C134.328 19.4041 135.579 15.9233 138.081 13.2926C140.584 10.6619 143.92 9.34661 148.091 9.34661C152.518 9.34661 155.918 10.8223 158.293 13.7738C160.699 16.7253 161.693 20.6713 161.276 25.6118H141.209C141.273 27.5687 141.963 29.1888 143.278 30.4721C144.626 31.7233 146.326 32.3489 148.379 32.3489C151.748 32.3489 153.881 30.7127 154.78 27.4404L160.554 30.039ZM148.043 14.9769C146.278 14.9769 144.802 15.4581 143.615 16.4205C142.428 17.383 141.707 18.6662 141.45 20.2703H154.491C154.266 18.6662 153.561 17.383 152.374 16.4205C151.219 15.4581 149.775 14.9769 148.043 14.9769Z" fill="white"/>
<path d="M179.777 36.3911C178.655 37.5139 176.938 38.0753 174.628 38.0753C172.19 38.0753 170.297 37.3214 168.95 35.8136C167.603 34.3058 166.929 32.2366 166.929 29.6059V15.4581H162.742V9.92407H166.929V6.79615L173.473 1.74336V9.92407H178.574V15.4581H173.473V29.2209C173.473 31.2741 174.195 32.3007 175.639 32.3007C176.762 32.3007 177.692 31.8676 178.43 31.0014L179.777 36.3911Z" fill="white"/>
<path d="M190.11 6.84427H183.517V0.492188H190.11V6.84427ZM190.062 37.4979H183.517V9.92407H190.062V37.4979Z" fill="white"/>
<path d="M220.567 29.3653C219.54 32.1884 217.968 34.3539 215.851 35.8617C213.733 37.3375 211.167 38.0753 208.151 38.0753C204.045 38.0753 200.708 36.76 198.142 34.1294C195.575 31.4666 194.292 27.9858 194.292 23.6869C194.292 19.4522 195.559 16.0035 198.094 13.3407C200.66 10.678 203.981 9.34661 208.055 9.34661C211.103 9.34661 213.717 10.1166 215.899 11.6565C218.08 13.1643 219.652 15.2977 220.615 18.0567L214.503 20.559C213.765 16.9659 211.664 15.1694 208.199 15.1694C206.018 15.1694 204.269 15.9393 202.954 17.4792C201.639 19.0191 200.981 21.0883 200.981 23.6869C200.981 26.2855 201.639 28.3708 202.954 29.9428C204.269 31.4827 206.034 32.2526 208.247 32.2526C211.68 32.2526 213.765 30.4561 214.503 26.863L220.567 29.3653Z" fill="white"/>
<path d="M257.402 37.4979H251.243V33.6963C248.484 36.6157 244.875 38.0753 240.415 38.0753C235.603 38.0753 231.641 36.3911 228.529 33.0226C225.45 29.6219 223.91 25.307 223.91 20.0778C223.91 14.7202 225.578 10.3411 228.914 6.94052C232.251 3.50782 236.55 1.79148 241.811 1.79148C245.34 1.79148 248.452 2.60955 251.147 4.24569C253.841 5.84975 255.83 8.0794 257.114 10.9346L250.617 14.6881C250.072 12.667 249.013 11.095 247.441 9.97219C245.901 8.81727 243.993 8.2398 241.715 8.2398C238.571 8.2398 236.036 9.31453 234.111 11.464C232.187 13.5813 231.224 16.3564 231.224 19.789C231.224 23.3821 232.171 26.3015 234.063 28.5472C235.956 30.7608 238.459 31.8676 241.57 31.8676C244.073 31.8676 246.19 31.1458 247.922 29.7021C249.655 28.2264 250.73 26.2855 251.147 23.8794H240.849V17.7198H257.402V37.4979Z" fill="white"/>
<path d="M269.201 6.84427H262.608V0.492188H269.201V6.84427ZM269.153 37.4979H262.608V9.92407H269.153V37.4979Z" fill="white"/>
<path d="M283.013 37.4979H276.468V15.4581H272.667V9.92407H276.565C276.661 7.32549 277.447 5.28833 278.923 3.81259C280.398 2.30478 282.404 1.55087 284.938 1.55087C286.991 1.55087 288.563 2.04813 289.654 3.04265L288.451 7.71047C287.745 6.87635 286.863 6.4593 285.804 6.4593C284.97 6.4593 284.28 6.78011 283.735 7.42174C283.19 8.03128 282.901 8.86539 282.869 9.92407H288.114V15.4581H283.013V37.4979Z" fill="white"/>
<path fill-rule="evenodd" clip-rule="evenodd" d="M65.5019 91.3711H87.1922H88.5322H201.339H224.496H224.496V114.57H224.496V137.235H201.339V114.57H88.5322V137.127H65.5019V91.3711Z" fill="#FFCA35"/>
<path fill-rule="evenodd" clip-rule="evenodd" d="M133.793 136.616H110.542V183.34H88.5467V158.288H65.5019V205.78L68.2355 205.78L88.5467 205.78L133.793 205.78V196.551H133.793V136.616Z" fill="#FFCA35"/>
<path fill-rule="evenodd" clip-rule="evenodd" d="M156.206 136.681H180.079V183.374H201.605V158.353H224.498V205.845H201.605L156.207 205.845V196.616H156.206V136.681Z" fill="#FFCA35"/>
</svg>
