<svg width="100%" height="100%" viewBox="0 0 476 78" version="1.1" xmlns="http://www.w3.org/2000/svg" xmlns:xlink="http://www.w3.org/1999/xlink" xml:space="preserve" xmlns:serif="http://www.serif.com/" style="fill-rule:evenodd;clip-rule:evenodd;stroke-linejoin:round;stroke-miterlimit:2;"><use id="onda-bassa" xlink:href="#_Image1" x="0" y="0" width="475.114px" height="77.637px" transform="matrix(0.998138,0,0,0.995352,1.06581e-14,0)"/><path id="onda-bassa1" serif:id="onda-bassa" d="M455.831,6.906c-2.851,0 -5.489,1.344 -7.846,3.984c-1.959,2.195 -3.309,4.828 -4.115,6.398l-0.008,0.016c-1.481,2.89 -4.556,8.898 -10.114,8.898c-5.554,0 -8.628,-6.008 -10.11,-8.898l-0.011,-0.016c-0.803,-1.57 -2.153,-4.203 -4.112,-6.398c-0.698,-0.781 -1.419,-1.437 -2.164,-1.984l-0.008,-0.023c-0.05,-0.039 -0.108,-0.063 -0.162,-0.102c-0.335,-0.242 -0.679,-0.461 -1.026,-0.656c-0.077,-0.047 -0.158,-0.094 -0.235,-0.133c-0.413,-0.219 -0.833,-0.406 -1.257,-0.554c-0.085,-0.032 -0.17,-0.055 -0.251,-0.079c-0.351,-0.117 -0.702,-0.203 -1.061,-0.273c-0.116,-0.023 -0.235,-0.047 -0.355,-0.07c-0.439,-0.063 -0.879,-0.11 -1.327,-0.11c-1.782,0 -3.479,0.524 -5.076,1.563l-0.004,0c-0.085,0.054 -0.169,0.125 -0.254,0.179c-0.868,0.602 -1.705,1.336 -2.511,2.242c-0.629,0.703 -1.188,1.453 -1.694,2.195c-1.068,1.578 -1.874,3.133 -2.422,4.203l-0.004,0.008l-0.004,0.008c-0.675,1.32 -1.689,3.281 -3.112,5.031c-1.698,2.085 -3.981,3.867 -7,3.867c-4.774,0 -7.715,-4.438 -9.387,-7.515c-0.001,-0.086 -0.001,-0.164 -0.002,-0.25c-0.218,-0.407 -0.414,-0.789 -0.587,-1.125l-0.01,-0.024c-0.806,-1.57 -2.154,-4.203 -4.115,-6.398c-2.355,-2.64 -4.995,-3.984 -7.846,-3.984l-0.133,0l0,0l-0.001,0c-0.283,0 -0.56,0.032 -0.838,0.063l-0.094,0c-1.266,0.14 -2.488,0.539 -3.659,1.218c-1.134,0.657 -2.223,1.547 -3.254,2.703c-0.457,0.508 -0.877,1.047 -1.269,1.586c-1.288,1.781 -2.228,3.609 -2.846,4.812l-0.01,0.016c-0.173,0.344 -0.369,0.726 -0.588,1.133c-1.639,3.07 -4.59,7.71 -9.451,7.757c-5.514,-0.047 -8.576,-6.015 -10.049,-8.89l-0.01,-0.016c-0.804,-1.57 -2.152,-4.203 -4.114,-6.398c-0.696,-0.781 -1.42,-1.437 -2.165,-1.984l-0.005,-0.023c-0.053,-0.039 -0.109,-0.063 -0.163,-0.102c-0.338,-0.242 -0.679,-0.461 -1.026,-0.656c-0.079,-0.047 -0.156,-0.094 -0.235,-0.133c-0.413,-0.219 -0.832,-0.406 -1.257,-0.554c-0.084,-0.032 -0.169,-0.055 -0.253,-0.079c-0.349,-0.117 -0.701,-0.203 -1.058,-0.273c-0.119,-0.023 -0.237,-0.047 -0.357,-0.07c-0.082,-0.008 -0.167,-0.008 -0.249,-0.016c-0.249,-0.039 -0.501,-0.055 -0.753,-0.062c-0.108,-0.008 -0.214,-0.032 -0.324,-0.032l-0.134,0c-0.352,0 -0.696,0.047 -1.041,0.086c-0.051,0.008 -0.103,0.008 -0.154,0.016c-1.567,0.211 -3.067,0.828 -4.48,1.875l-0.045,0.179c-0.682,0.524 -1.351,1.11 -1.992,1.828c-0.628,0.703 -1.187,1.453 -1.691,2.195c-1.071,1.578 -1.875,3.133 -2.422,4.203l-0.006,0.008l-0.004,0.008c-0.675,1.32 -1.688,3.281 -3.112,5.031c-1.696,2.085 -3.98,3.867 -7,3.867c-5.554,0 -8.632,-6.008 -10.111,-8.898l-0.01,-0.016c-0.805,-1.57 -2.153,-4.203 -4.114,-6.398c-2.355,-2.64 -4.995,-3.984 -7.845,-3.984l-0.001,0l0,0c-1.603,0 -3.135,0.438 -4.591,1.281c-1.135,0.657 -2.223,1.547 -3.254,2.703c-0.457,0.508 -0.878,1.047 -1.269,1.586c-1.288,1.781 -2.228,3.609 -2.846,4.812l-0.01,0.016c-0.173,0.344 -0.369,0.726 -0.588,1.133c-1.647,3.085 -4.618,7.765 -9.523,7.765c-5.554,0 -8.632,-6.008 -10.111,-8.89l-0.01,-0.024c-0.805,-1.57 -2.153,-4.203 -4.114,-6.398c-2.355,-2.64 -4.995,-3.984 -7.846,-3.984l-0.012,0c-0.451,0 -0.895,0.047 -1.336,0.118c-0.102,0.015 -0.204,0.031 -0.306,0.054c-0.391,0.071 -0.778,0.172 -1.16,0.297c-0.05,0.016 -0.102,0.031 -0.152,0.047c-0.452,0.164 -0.897,0.359 -1.335,0.594l-0.071,0.039c-0.421,0.226 -0.837,0.492 -1.245,0.796l-0.058,0.032l-0.001,0.008c-0.75,0.554 -1.48,1.21 -2.181,1.999c-1.961,2.195 -3.309,4.828 -4.114,6.398l-0.01,0.016c-1.479,2.89 -4.557,8.898 -10.111,8.898c-5.555,0 -8.632,-6.008 -10.112,-8.898l-0.01,-0.016c-0.804,-1.57 -2.152,-4.203 -4.113,-6.398c-0.697,-0.781 -1.421,-1.437 -2.166,-1.984l-0.004,-0.023c-0.054,-0.039 -0.11,-0.063 -0.164,-0.102c-0.337,-0.242 -0.679,-0.461 -1.026,-0.656c-0.079,-0.047 -0.156,-0.094 -0.235,-0.133c-0.413,-0.219 -0.832,-0.406 -1.257,-0.554c-0.084,-0.032 -0.169,-0.055 -0.253,-0.079c-0.349,-0.117 -0.701,-0.203 -1.058,-0.273c-0.119,-0.023 -0.237,-0.047 -0.357,-0.07c-0.437,-0.063 -0.878,-0.11 -1.326,-0.11c-1.781,0 -3.478,0.524 -5.077,1.563l-0.002,0c-0.086,0.054 -0.169,0.125 -0.254,0.179c-0.868,0.602 -1.708,1.336 -2.512,2.242c-0.629,0.703 -1.188,1.453 -1.692,2.195c-1.071,1.578 -1.875,3.133 -2.422,4.203l-0.006,0.008l-0.004,0.008c-0.675,1.32 -1.688,3.281 -3.111,5.031c-1.697,2.085 -3.981,3.867 -7.001,3.867c-4.774,0 -7.715,-4.438 -9.387,-7.515c-0.001,-0.086 -0.002,-0.164 -0.002,-0.25c-0.218,-0.407 -0.414,-0.789 -0.587,-1.125l-0.011,-0.024c-0.805,-1.57 -2.153,-4.203 -4.114,-6.398c-2.356,-2.64 -4.995,-3.984 -7.846,-3.984l-0.133,0l-0.001,0l0,0c-0.283,0 -0.56,0.032 -0.839,0.063l-0.093,0c-1.266,0.14 -2.489,0.539 -3.659,1.218c-1.135,0.657 -2.223,1.547 -3.254,2.703c-0.457,0.508 -0.878,1.047 -1.269,1.586c-1.288,1.781 -2.228,3.609 -2.846,4.812l-0.01,0.016c-0.173,0.344 -0.369,0.726 -0.588,1.133c-1.639,3.07 -4.591,7.71 -9.452,7.757c-5.513,-0.047 -8.575,-6.015 -10.048,-8.89l-0.01,-0.016c-0.805,-1.57 -2.153,-4.203 -4.114,-6.398c-0.696,-0.781 -1.421,-1.437 -2.165,-1.984l-0.005,-0.023c-0.053,-0.039 -0.109,-0.063 -0.163,-0.102c-0.338,-0.242 -0.68,-0.461 -1.027,-0.656c-0.079,-0.047 -0.156,-0.094 -0.235,-0.133c-0.412,-0.219 -0.831,-0.406 -1.256,-0.554c-0.084,-0.032 -0.169,-0.055 -0.253,-0.079c-0.35,-0.117 -0.702,-0.203 -1.058,-0.273c-0.119,-0.023 -0.238,-0.047 -0.357,-0.07c-0.082,-0.008 -0.167,-0.008 -0.25,-0.016c-0.248,-0.039 -0.5,-0.055 -0.752,-0.062c-0.109,-0.008 -0.215,-0.032 -0.324,-0.032l-0.135,0c-0.351,0 -0.696,0.047 -1.041,0.086c-0.051,0.008 -0.103,0.008 -0.154,0.016c-1.566,0.211 -3.066,0.828 -4.48,1.875l-0.045,0.179c-0.682,0.524 -1.35,1.11 -1.991,1.828c-0.628,0.703 -1.187,1.453 -1.691,2.195c-1.071,1.578 -1.876,3.133 -2.423,4.203l-0.005,0.008l-0.005,0.008c-0.675,1.32 -1.687,3.281 -3.111,5.031c-1.697,2.085 -3.98,3.867 -7.001,3.867c-5.554,0 -8.631,-6.008 -10.11,-8.898l-0.01,-0.016c-0.805,-1.57 -2.153,-4.203 -4.114,-6.398c-2.355,-2.64 -4.995,-3.984 -7.845,-3.984l-0.001,0l-0.001,0c-1.602,0 -3.135,0.438 -4.591,1.281c-1.134,0.657 -2.222,1.547 -3.253,2.703c-0.458,0.508 -0.878,1.047 -1.269,1.586c-1.288,1.781 -2.229,3.609 -2.847,4.812l-0.009,0.016c-0.174,0.344 -0.369,0.726 -0.589,1.133c-1.647,3.085 -4.618,7.765 -9.522,7.765c-5.554,0 -8.632,-6.008 -10.111,-8.89l-0.01,-0.024c-0.806,-1.57 -2.153,-4.203 -4.114,-6.398c-2.356,-2.64 -4.995,-3.984 -7.846,-3.984l-7.75,0l0,64.198l461.674,0l0,-51.792l0,-12.406l-12.563,0Z" style="fill:#003559;fill-rule:nonzero;"/><defs></defs>
</svg>