<svg version="1.1"
      xmlns="http://www.w3.org/2000/svg"
      xmlns:xlink="http://www.w3.org/1999/xlink"  id="snapshot-26855" width="250" height="250" viewBox="0 0 250 250"><desc>This image was made on Patterninja.com</desc><defs>
<!-- image 52251 -->
<g id="transformed-52251" data-image="52251" transform="translate(81.30182192954307, 72.30182192954308) rotate(21, 24.698178070456937, 24.698178070456926)"><g><svg version="1.1" width="49.39635614091387px" height="49.39635614091385px" viewBox="0 0 49.39635614091387 49.39635614091385"><g id="original-52251"><svg xmlns="http://www.w3.org/2000/svg" viewBox="0 0 512 512" data-name="Layer 1" xmlns:xlink="http://www.w3.org/1999/xlink" version="1.1" preserveAspectRatio="xMidYMid meet">
  <path d="M123.132 373.416a6 6 0 0 0 4.244-10.242 161.177 161.177 0 0 1-23.48-29.789 6 6 0 0 0-10.238 6.261 173.184 173.184 0 0 0 25.23 32.011 5.984 5.984 0 0 0 4.244 1.759z" fill="rgba(0, 202, 255, 1)" stroke="none"/>
  <path d="M85.217 190.36a6 6 0 0 0-7.612 3.75 172.51 172.51 0 0 0-3.47 99.754 6 6 0 0 0 11.6-3.057 160.54 160.54 0 0 1 3.228-92.835 6 6 0 0 0-3.746-7.612z" fill="rgba(0, 202, 255, 1)" stroke="none"/>
  <path d="M35.459 66.715a30.082 30.082 0 0 1 18.928 18.943 6 6 0 0 0 11.385 0A30.081 30.081 0 0 1 84.7 66.715a6 6 0 0 0 0-11.383 30.082 30.082 0 0 1-18.928-18.943 6 6 0 0 0-11.385 0 30.085 30.085 0 0 1-18.928 18.943 6 6 0 0 0 0 11.383zm24.621-15.4a42.344 42.344 0 0 0 9.7 9.705 42.348 42.348 0 0 0-9.7 9.706 42.392 42.392 0 0 0-9.7-9.706 42.368 42.368 0 0 0 9.7-9.702z" fill="rgba(0, 202, 255, 1)" stroke="none"/>
  <path d="M435.75 438.463a30.082 30.082 0 0 1-18.927-18.942 6 6 0 0 0-11.385 0 30.079 30.079 0 0 1-18.928 18.942 6 6 0 0 0 0 11.384 30.081 30.081 0 0 1 18.928 18.942 6 6 0 0 0 11.385 0 30.083 30.083 0 0 1 18.927-18.943 6 6 0 0 0 0-11.384zm-24.62 15.4a42.363 42.363 0 0 0-9.7-9.705 42.324 42.324 0 0 0 9.7-9.7 42.368 42.368 0 0 0 9.7 9.7 42.407 42.407 0 0 0-9.7 9.702z" fill="rgba(0, 202, 255, 1)" stroke="none"/>
  <path d="M358.871 483.631a11.685 11.685 0 1 0 11.68 11.684 11.7 11.7 0 0 0-11.68-11.684z" fill="rgba(0, 202, 255, 1)" stroke="none"/>
  <path d="M120.292 28.369a11.685 11.685 0 1 0-11.68-11.684 11.7 11.7 0 0 0 11.68 11.684z" fill="rgba(0, 202, 255, 1)" stroke="none"/>
  <path d="M470.583 7.182a6 6 0 0 0 0 8.485c14.237 14.248 21.612 33.6 21.919 57.309a6.089 6.089 0 0 0 6 6.024h.079a6.062 6.062 0 0 0 5.922-6.179c-.35-26.949-8.906-49.049-25.431-65.586a6 6 0 0 0-8.489-.053z" fill="rgba(0, 202, 255, 1)" stroke="none"/>
  <path d="M494.451 109.714a6 6 0 0 0-7.269 4.378 251.04 251.04 0 0 1-5.075 17.575 6 6 0 1 0 11.4 3.734c2.05-6.264 3.84-12.461 5.318-18.419a6 6 0 0 0-4.374-7.268z" fill="rgba(0, 202, 255, 1)" stroke="none"/>
  <path d="M302.817 50.569a208.834 208.834 0 0 0-209.473 51.706c-56.627 56.669-73.778 138.1-51.48 209.78a6.029 6.029 0 0 0-1.089 1.4C1.862 382.351-3.057 434.431 26.551 464.06c12.677 12.685 29.581 19.017 50.211 19.016 23.483 0 51.791-8.208 84.155-24.591q8.757-4.431 17.785-9.593a208.564 208.564 0 0 0 261.014-261.243c12.248-21.484 21.408-41.718 27.088-60.022 12.612-40.638 8.6-71.656-11.92-92.192C425.01 5.539 372.453 10.8 302.817 50.569zm-200.984 60.189a196.788 196.788 0 0 1 199.11-48.19 6.042 6.042 0 0 0 1.4.443A193.724 193.724 0 0 1 331.981 75.6a6.043 6.043 0 0 0 1.04.541 198.165 198.165 0 0 1 79.957 79.069c-10.426 20.048-24.368 42.1-41.476 65.189a45.25 45.25 0 0 0-8.087-.736 45.989 45.989 0 0 0-43.028 62.179 854.518 854.518 0 0 1-23.323 24.3c-50.412 50.449-103.955 91.622-150.82 115.99a196.586 196.586 0 0 1-44.411-33.394c-76.585-76.638-76.585-201.338 0-277.98zM348.2 70.972c38-17.572 66.534-20.545 79.114-7.957 12.927 12.936 9.38 41.811-7.951 79.222A210.581 210.581 0 0 0 348.2 70.972zm46.939 182.5a33.974 33.974 0 1 1-31.722-21.8 33.872 33.872 0 0 1 31.72 21.796zM133.277 428.511c-38.043 17.615-66.534 20.6-79.154 7.968-12.589-12.6-9.608-41.185 7.98-79.244a209.421 209.421 0 0 0 71.174 71.276zm22.223 19.268c-23.947 12.121-53.051 23.35-78.689 23.349-15.96 0-30.58-4.353-41.77-15.551C22.105 442.634 17.212 423.9 20.5 399.878c2.868-20.972 11.819-45.507 26.6-73.007q3.517 8.88 7.882 17.479c-10.929 22.015-17.581 41.481-19.757 57.88-2.51 18.926.994 33.3 10.417 42.732 7.425 7.43 18.072 11.118 31.483 11.117 19.437 0 44.673-7.753 74.262-23.092 48.021-24.893 102.774-66.929 154.173-118.364 7.1-7.1 14.1-14.365 20.891-21.657a46.36 46.36 0 0 0 10.749 10.449 866.674 866.674 0 0 1-21.045 21.822c-52.985 53.015-111.539 97.68-160.655 122.542zm276.61-153.74A196.412 196.412 0 0 1 192.938 440.43c42.525-26.27 88.222-63.2 131.7-106.71a878.707 878.707 0 0 0 23.652-24.627 46.007 46.007 0 0 0 58.05-59.928 45.207 45.207 0 0 0-2.973-6.257c10.346-13.976 19.665-27.694 27.887-41.011a197.472 197.472 0 0 1 .854 92.142zm23.236-169.968c-9.743 31.392-30.3 68.948-59.6 108.95a46.663 46.663 0 0 0-12.246-8.681c17.024-23.263 31.022-45.667 41.524-66.343.023-.041.042-.084.064-.126a267.583 267.583 0 0 0 13.992-32.227c11.52-32.851 10.382-57.444-3.28-71.112-9.424-9.432-23.792-12.932-42.709-10.425-16.363 2.173-35.779 8.812-57.737 19.718q-8.544-4.367-17.458-7.914c26.745-14.387 50.688-23.232 71.305-26.325 24.744-3.71 43.985 1.111 57.195 14.331 17.125 17.137 20.135 44.104 8.948 80.154z" fill="rgba(0, 202, 255, 1)" stroke="none"/>
</svg>
</g></svg></g></g>
<!-- /image 52251 -->

<!-- image 29676 -->
<g id="transformed-29676" data-image="29676" transform="translate(139.8452405257735, 190.8452405257735) rotate(22, 29.1547594742265, 29.154759474226502)"><g><svg version="1.1" width="58.309518948453px" height="58.309518948453004px" viewBox="0 0 58.309518948453 58.309518948453004"><g id="original-29676"><svg xmlns="http://www.w3.org/2000/svg" viewBox="0 0 510.141 510.141" xmlns:xlink="http://www.w3.org/1999/xlink" version="1.1" preserveAspectRatio="xMidYMid meet">
  <path d="M436.052 75.342a7.501 7.501 0 0 0-10.644 10.57c44.182 44.488 68.843 103.263 69.691 165.823-31.034 2.068-55.654 27.959-55.654 59.507 0 21.751 11.616 41.339 30.155 51.844-11.377 22.54-26.403 43.367-44.775 61.739-33.353 33.353-74.797 55.667-119.901 65.144-8.085-20.116-27.678-33.643-49.855-33.643-22.175 0-41.76 13.53-49.844 33.645-45.108-9.477-86.555-31.791-119.911-65.146C39.972 379.482 15 319.195 15 255.07c0-39.937 9.69-78.383 27.951-112.659a106.886 106.886 0 0 0 42.394 8.802c12.585 0 24.907-2.177 36.623-6.471a7.5 7.5 0 0 0-5.162-14.084c-10.057 3.686-20.642 5.555-31.46 5.555-12.152 0-23.845-2.315-34.867-6.884a241.843 241.843 0 0 1 34.837-44.014c25.829-25.829 56.513-45.037 89.987-56.795a91.577 91.577 0 0 1 1.463 16.272c0 27.729-12.385 53.651-33.979 71.116a7.5 7.5 0 0 0 4.721 13.332 7.466 7.466 0 0 0 4.712-1.669c25.132-20.328 39.546-50.5 39.546-82.779 0-7.009-.69-13.987-2.05-20.827C210.717 18.061 232.657 15 255.07 15c53.826 0 104.7 17.416 147.122 50.364a7.5 7.5 0 0 0 10.524-1.323 7.5 7.5 0 0 0-1.323-10.524C366.315 18.506 312.259 0 255.07 0 186.938 0 122.885 26.532 74.708 74.708 26.532 122.885 0 186.938 0 255.07s26.532 132.186 74.708 180.362c48.176 48.177 112.23 74.708 180.362 74.708s132.186-26.532 180.362-74.708c48.177-48.176 74.708-112.23 74.708-180.362.001-67.791-26.311-131.619-74.088-179.728zM220.444 492.668a38.718 38.718 0 0 1 34.626-21.341 38.724 38.724 0 0 1 34.632 21.34 243.565 243.565 0 0 1-69.258.001zm234.002-181.426c0-23.192 17.773-42.304 40.412-44.449-1.376 28.818-7.833 56.702-18.915 82.633-13.251-8.002-21.497-22.327-21.497-38.184z" fill="rgba(0, 202, 255, 1)" stroke="none"/>
  <path d="M323.68 239.906c-.106-.003-.213-.007-.32-.006a7.5 7.5 0 0 0-.149 14.998c.125.004.249.007.375.007 35.813 0 64.95-29.136 64.95-64.95s-29.136-64.95-64.95-64.95-64.95 29.136-64.95 64.95c0 22.245 11.207 42.7 29.979 54.72a7.501 7.501 0 0 0 8.088-12.633c-14.444-9.248-23.067-24.981-23.067-42.087 0-27.542 22.407-49.95 49.95-49.95s49.95 22.407 49.95 49.95c-.002 27.511-22.358 49.899-49.856 49.951z" fill="rgba(0, 202, 255, 1)" stroke="none"/>
  <path d="M155.868 344.338c22.37 0 40.568-18.199 40.568-40.568s-18.199-40.568-40.568-40.568S115.3 281.401 115.3 303.77s18.198 40.568 40.568 40.568zm0-66.136c14.099 0 25.568 11.47 25.568 25.568s-11.47 25.568-25.568 25.568-25.568-11.47-25.568-25.568 11.469-25.568 25.568-25.568z" fill="rgba(0, 202, 255, 1)" stroke="none"/>
  <path d="M94.491 191.57c-15.265 0-27.685 12.419-27.685 27.685s12.419 27.685 27.685 27.685 27.685-12.419 27.685-27.685-12.42-27.685-27.685-27.685zm0 40.369c-6.994 0-12.685-5.69-12.685-12.685s5.69-12.685 12.685-12.685 12.685 5.69 12.685 12.685-5.691 12.685-12.685 12.685z" fill="rgba(0, 202, 255, 1)" stroke="none"/>
  <path d="M314.815 421.274c20.783 0 37.691-16.908 37.691-37.691s-16.908-37.691-37.691-37.691-37.691 16.908-37.691 37.691 16.908 37.691 37.691 37.691zm0-60.382c12.512 0 22.691 10.179 22.691 22.691s-10.179 22.691-22.691 22.691-22.691-10.179-22.691-22.691 10.179-22.691 22.691-22.691z" fill="rgba(0, 202, 255, 1)" stroke="none"/>
  <path d="M398.412 304.231c0-15.907-12.941-28.849-28.848-28.849s-28.849 12.941-28.849 28.849 12.941 28.849 28.849 28.849c15.907 0 28.848-12.942 28.848-28.849zm-42.697 0c0-7.636 6.212-13.849 13.849-13.849 7.636 0 13.848 6.212 13.848 13.849s-6.212 13.849-13.848 13.849-13.849-6.213-13.849-13.849z" fill="rgba(0, 202, 255, 1)" stroke="none"/>
</svg>
</g></svg></g></g>
<!-- /image 29676 -->

<!-- image 12202 -->
<g id="transformed-12202" data-image="12202" transform="translate(24, 190) rotate(0, 26, 25.999999999999993)"><g><svg version="1.1" width="52px" height="51.999999999999986px" viewBox="0 0 52 51.999999999999986"><g id="original-12202"><svg xmlns="http://www.w3.org/2000/svg" viewBox="0 0 64 64" xmlns:xlink="http://www.w3.org/1999/xlink" version="1.1" preserveAspectRatio="xMidYMid meet">
  <path d="M55 28h-2c0 2.601-4.282 6.312-12.216 8.07l.433 1.953C49.461 36.196 55 32.168 55 28z" fill="rgba(0, 202, 255, 1)" stroke="none"/>
  <path d="M32 19v-2c-.691 0-1.373.016-2.044.046l.089 1.998A44.853 44.853 0 0 1 32 19z" fill="rgba(0, 202, 255, 1)" stroke="none"/>
  <path d="M28.091 19.177l-.183-1.992C17.306 18.156 9 22.906 9 28h2c0-3.505 6.868-7.887 17.091-8.823z" fill="rgba(0, 202, 255, 1)" stroke="none"/>
  <path d="M60 22h-1.854C55.141 9.937 44.558 1 32 1S8.859 9.937 5.854 22H4c-1.654 0-3 1.346-3 3v8c0 .883.391 1.67 1 2.22V45c0 9.374 7.626 17 17 17h7.382c.703.615 1.612 1 2.618 1h6c2.206 0 4-1.794 4-4s-1.794-4-4-4h-6a3.966 3.966 0 0 0-2.618 1H19c-6.065 0-11-4.935-11-11v-6.131a18.139 18.139 0 0 0 2.563 3.049C10.194 42.596 10 43.293 10 44c0 5.131 9.458 9 22 9s22-3.869 22-9c0-.707-.194-1.404-.563-2.082A18.012 18.012 0 0 0 57.568 36H60c1.654 0 3-1.346 3-3v-8c0-1.654-1.346-3-3-3zM7.081 27C8.067 20.298 18.863 15 32 15s23.933 5.298 24.919 12c.033.442.054.886.065 1.333C56.642 35.347 45.57 41 32 41S7.358 35.347 7.016 28.333c.011-.447.033-.891.065-1.333zM27.153 7h9.694l.563-3.38a24.26 24.26 0 0 1 2.625.765L39.17 9H24.83l-.865-4.614a23.972 23.972 0 0 1 2.625-.765zm8.291-3.747L35.153 5h-6.306l-.291-1.747C29.683 3.09 30.831 3 32 3s2.317.09 3.444.253zm-13.372 1.89L23.17 11h17.66l1.098-5.857c6.447 2.913 11.487 8.572 13.756 15.549C51.134 16.07 42.333 13 32 13s-19.134 3.07-23.684 7.693c2.269-6.978 7.309-12.636 13.756-15.55zM3 25c0-.552.449-1 1-1h1.44a29.048 29.048 0 0 0-.347 2.777A8.87 8.87 0 0 0 5 28c0 .12.011.238.016.357-.005.215-.016.427-.016.643v.201c.012 1.664.275 3.27.724 4.799H4c-.551 0-1-.448-1-1zm26 32h6c1.103 0 2 .897 2 2s-.897 2-2 2h-6c-1.103 0-2-.897-2-2s.897-2 2-2zm-10 1h6.142c-.084.322-.142.653-.142 1s.058.678.142 1H19c-8.271 0-15-6.729-15-15v-9h2v9c0 7.168 5.832 13 13 13zm33-14c0 3.311-8.214 7-20 7s-20-3.689-20-7c0-.245.052-.495.145-.748A18.344 18.344 0 0 0 23.258 47h17.483c4.177 0 8.027-1.408 11.113-3.748.094.253.146.503.146.748zm-11.258 1H23.258c-6.693 0-12.475-4.012-14.959-9.71C12.844 39.922 21.655 43 32 43s19.156-3.078 23.701-7.71C53.216 40.988 47.434 45 40.742 45zM61 33c0 .552-.449 1-1 1h-1.724c.448-1.529.711-3.134.724-4.799V29c0-.216-.011-.428-.016-.643.005-.119.016-.237.016-.357 0-.413-.037-.82-.093-1.223A29.089 29.089 0 0 0 58.56 24H60c.551 0 1 .448 1 1z" fill="rgba(0, 202, 255, 1)" stroke="none"/>
</svg>
</g></svg></g></g>
<!-- /image 12202 -->

<!-- image 99566 -->
<g id="transformed-99566" data-image="99566" transform="translate(195, 58.00000000000001) rotate(0, 35, 34.99999999999999)"><g><svg version="1.1" width="70px" height="69.99999999999999px" viewBox="0 0 70 69.99999999999999"><g id="original-99566"><svg xmlns="http://www.w3.org/2000/svg" viewBox="0 0 512 512" xmlns:xlink="http://www.w3.org/1999/xlink" version="1.1" preserveAspectRatio="xMidYMid meet">
  <path d="M389.039 296.976l-39.238-22.562c8.338-30.283 14.718-61.239 14.718-85.084 0-12.607-.98-25.106-2.914-37.149a7.499 7.499 0 0 0-8.595-6.216 7.502 7.502 0 0 0-6.216 8.595c1.808 11.259 2.725 22.957 2.725 34.771 0 57.354-40.789 163.083-50.093 186.45H212.57a1122.225 1122.225 0 0 1-10.91-28.556 7.497 7.497 0 0 0-9.625-4.455 7.5 7.5 0 0 0-4.456 9.625 1187.994 1187.994 0 0 0 8.863 23.386h-62.243v-67.964l32.282-18.562a982.617 982.617 0 0 0 9.453 29.886 7.503 7.503 0 0 0 7.114 5.131 7.5 7.5 0 0 0 7.117-9.873c-18.112-54.361-27.685-97.609-27.685-125.068 0-33.848 7.297-65.159 21.73-93.517h143.508a196.26 196.26 0 0 1 10.988 26.034 7.505 7.505 0 0 0 7.103 5.095 7.5 7.5 0 0 0 7.104-9.909C325.967 37.506 262.263 2.358 259.563.9a7.503 7.503 0 0 0-7.129.001c-.626.339-15.553 8.485-34.064 25.59a7.501 7.501 0 0 0 10.18 11.018C240.443 26.52 250.797 19.491 256 16.23c10.162 6.379 40.012 27.228 63.26 64.583H192.681A208.26 208.26 0 0 1 205.64 62.33a7.5 7.5 0 1 0-11.8-9.259c-30.763 39.198-46.36 85.042-46.36 136.26 0 21.173 4.943 49.682 14.73 85.077l-39.249 22.568a7.5 7.5 0 0 0-3.762 6.502v79.803a7.5 7.5 0 0 0 7.5 7.5h64.829c-5.725 8.72-11.516 21.449-11.516 37.309 0 30.688 26.532 53.853 27.662 54.824a7.502 7.502 0 0 0 11.277-1.756l2.75-4.467 28.656 32.749a7.5 7.5 0 0 0 11.288-.002l28.655-32.749 2.749 4.467a7.5 7.5 0 0 0 11.277 1.756c1.129-.972 27.662-24.136 27.662-54.824 0-15.859-5.792-28.589-11.516-37.309h64.829c4.143 0 7.5-3.357 7.5-7.5v-79.803a7.498 7.498 0 0 0-3.762-6.5zm-110.234 120.65c0 15.809-16.04 26.278-22.82 29.997-6.797-3.697-22.79-14.09-22.79-29.997 0-13.123 6.004-22.742 9.114-26.846h27.378c3.125 4.123 9.118 13.736 9.118 26.846zm21.974 47.472l-3.036-4.935a7.5 7.5 0 0 0-12.033-1.008L256 493.11l-29.711-33.955a7.501 7.501 0 0 0-12.032 1.008l-3.037 4.934c-6.644-7.681-16.209-21.442-16.209-37.008 0-18.975 11.096-32.596 15.56-37.309h14.127c-3.409 6.704-6.504 15.818-6.504 26.846 0 29.835 33.401 44.651 34.823 45.268a7.502 7.502 0 0 0 5.964 0c1.422-.616 34.822-15.433 34.822-45.268 0-11.028-3.094-20.142-6.503-26.846h14.125c4.482 4.731 15.562 18.346 15.562 37.309.001 15.566-9.566 29.33-16.208 37.009zm77.022-89.318h-62.226c6.445-16.405 19.13-49.992 29.973-86.51l32.254 18.546v67.964z" fill="rgba(0, 202, 255, 1)" stroke="none"/>
  <path d="M187.89 210.543c0 37.556 30.554 68.109 68.11 68.109s68.109-30.554 68.109-68.109c0-37.557-30.554-68.11-68.109-68.11s-68.11 30.553-68.11 68.11zm121.219 0c0 29.284-23.825 53.109-53.109 53.109-29.285 0-53.11-23.825-53.11-53.109 0-29.285 23.825-53.11 53.11-53.11 29.284 0 53.109 23.825 53.109 53.11z" fill="rgba(0, 202, 255, 1)" stroke="none"/>
  <path d="M220.215 210.543c0 19.731 16.053 35.784 35.785 35.784 19.731 0 35.784-16.053 35.784-35.784 0-19.732-16.053-35.785-35.784-35.785-19.732 0-35.785 16.053-35.785 35.785zm56.569 0c0 11.46-9.324 20.784-20.784 20.784-11.461 0-20.785-9.324-20.785-20.784 0-11.461 9.324-20.785 20.785-20.785 11.46 0 20.784 9.324 20.784 20.785z" fill="rgba(0, 202, 255, 1)" stroke="none"/>
</svg>
</g></svg></g></g>
<!-- /image 99566 -->

</defs><rect x="0" y="0" width="250" height="250" fill="rgba(35, 13, 109, 1)"></rect><use xlink:href="#transformed-52251" transform="translate(-250, -250)"></use><use xlink:href="#transformed-52251" transform="translate(0, -250)"></use><use xlink:href="#transformed-52251" transform="translate(250, -250)"></use><use xlink:href="#transformed-52251" transform="translate(-250, 0)"></use><use xlink:href="#transformed-52251" transform="translate(0, 0)"></use><use xlink:href="#transformed-52251" transform="translate(250, 0)"></use><use xlink:href="#transformed-52251" transform="translate(-250, 250)"></use><use xlink:href="#transformed-52251" transform="translate(0, 250)"></use><use xlink:href="#transformed-52251" transform="translate(250, 250)"></use><use xlink:href="#transformed-29676" transform="translate(-250, -250)"></use><use xlink:href="#transformed-29676" transform="translate(0, -250)"></use><use xlink:href="#transformed-29676" transform="translate(250, -250)"></use><use xlink:href="#transformed-29676" transform="translate(-250, 0)"></use><use xlink:href="#transformed-29676" transform="translate(0, 0)"></use><use xlink:href="#transformed-29676" transform="translate(250, 0)"></use><use xlink:href="#transformed-29676" transform="translate(-250, 250)"></use><use xlink:href="#transformed-29676" transform="translate(0, 250)"></use><use xlink:href="#transformed-29676" transform="translate(250, 250)"></use><use xlink:href="#transformed-12202" transform="translate(-250, -250)"></use><use xlink:href="#transformed-12202" transform="translate(0, -250)"></use><use xlink:href="#transformed-12202" transform="translate(250, -250)"></use><use xlink:href="#transformed-12202" transform="translate(-250, 0)"></use><use xlink:href="#transformed-12202" transform="translate(0, 0)"></use><use xlink:href="#transformed-12202" transform="translate(250, 0)"></use><use xlink:href="#transformed-12202" transform="translate(-250, 250)"></use><use xlink:href="#transformed-12202" transform="translate(0, 250)"></use><use xlink:href="#transformed-12202" transform="translate(250, 250)"></use><use xlink:href="#transformed-99566" transform="translate(-250, -250)"></use><use xlink:href="#transformed-99566" transform="translate(0, -250)"></use><use xlink:href="#transformed-99566" transform="translate(250, -250)"></use><use xlink:href="#transformed-99566" transform="translate(-250, 0)"></use><use xlink:href="#transformed-99566" transform="translate(0, 0)"></use><use xlink:href="#transformed-99566" transform="translate(250, 0)"></use><use xlink:href="#transformed-99566" transform="translate(-250, 250)"></use><use xlink:href="#transformed-99566" transform="translate(0, 250)"></use><use xlink:href="#transformed-99566" transform="translate(250, 250)"></use></svg>
